<svg id="Layer_1" data-name="Layer 1" xmlns="http://www.w3.org/2000/svg" viewBox="0 0 180.65 169.59"><defs><style>.cls-1{fill:#f60;}.cls-2{fill:#fff;}</style></defs><rect class="cls-1" width="180.65" height="169.59" rx="17.23"/><path class="cls-2" d="M103.31,104.35H100.4v5.4h2.89a16.9,16.9,0,0,0,.28-2.78A17.49,17.49,0,0,0,103.31,104.35Z" transform="translate(-59.95 -65.48)"/><path class="cls-2" d="M107,104.19a17.31,17.31,0,1,0,0,5.36M89.89,116a9.08,9.08,0,1,1,9.16-9.16A9.13,9.13,0,0,1,89.89,116Z" transform="translate(-59.95 -65.48)"/><path class="cls-2" d="M210.49,158.07a17.29,17.29,0,1,0-17.2-17.36A17.31,17.31,0,0,0,210.49,158.07Zm0-26.36a9.08,9.08,0,1,1-9,9A9.14,9.14,0,0,1,210.49,131.71Z" transform="translate(-59.95 -65.48)"/><path class="cls-2" d="M139.3,102.86" transform="translate(-59.95 -65.48)"/><path class="cls-2" d="M162.14,146.34" transform="translate(-59.95 -65.48)"/><path class="cls-2" d="M161.6,146.12" transform="translate(-59.95 -65.48)"/><path class="cls-2" d="M163.4,147h32.86a1.34,1.34,0,0,0,1.34-1.34V139.9a1.35,1.35,0,0,0-1.34-1.35H165.51L137.58,102h-32.7a1.49,1.49,0,0,0-1.48,1.48v5.45a1.48,1.48,0,0,0,1.48,1.47h30.85l27.88,36.44" transform="translate(-59.95 -65.48)"/><path class="cls-2" d="M103.31,153H100.4v5.4h2.89a16.9,16.9,0,0,0,.28-2.78A17.49,17.49,0,0,0,103.31,153Z" transform="translate(-59.95 -65.48)"/><path class="cls-2" d="M107,153.18a17.32,17.32,0,1,0,0,5.37m-17.09,6.39a9.08,9.08,0,1,1,9.16-9.16A9.13,9.13,0,0,1,89.89,164.94Z" transform="translate(-59.95 -65.48)"/><path class="cls-2" d="M210.49,207.06a17.28,17.28,0,1,0-17.2-17.36A17.31,17.31,0,0,0,210.49,207.06Zm0-26.36a9.08,9.08,0,1,1-9,9A9.14,9.14,0,0,1,210.49,180.7Z" transform="translate(-59.95 -65.48)"/><path class="cls-2" d="M163.4,196.75h32.86a1.34,1.34,0,0,0,1.34-1.34V189.7a1.35,1.35,0,0,0-1.34-1.35H165.51l-27.93-36.6h-32.7a1.49,1.49,0,0,0-1.48,1.48v5.45a1.48,1.48,0,0,0,1.48,1.47h30.85l27.88,36.44" transform="translate(-59.95 -65.48)"/></svg>