<?xml version="1.0" encoding="UTF-8"?>
<svg width="570" height="400" version="1.1" viewBox="0 0 150.81 105.83" xmlns="http://www.w3.org/2000/svg"><defs><style>.cls-1{fill:#a54544;}.cls-2{fill:#fc4f4f;}.cls-3{fill:#bebcbd;}.cls-4{fill:#e31c41;}.cls-5{fill:#59595b;}</style></defs><g transform="translate(518.53 210.76)"><rect x="-518.53" y="-210.76" width="150.81" height="105.83" fill="#fff" fill-opacity=".99842" fill-rule="evenodd" stroke-width=".066416"/></g><g transform="translate(518.53 210.76)"><path id="BG---Logo-Main" d="m-465.07-155.58c-0.41427-0.56192-1.1187-1.0216-1.9718-1.0216-1.58 0-2.7196 1.206-2.7196 2.8394 0 1.634 1.1395 2.8396 2.7196 2.8396 0.73821 0 1.4282-0.31474 1.7891-0.62835 0.0242-0.0212 0.0367-0.0512 0.0367-0.0835v-0.88594c0-0.0552-0.0452-0.10087-0.10088-0.10087h-2.0321c-0.0809 0-0.14632-0.0657-0.14632-0.14631v-1.3149c0-0.0809 0.0655-0.14662 0.14632-0.14662h3.6436v-1.9514l-1.1764 0.64432c-0.0627 0.0345-0.14571 0.012-0.18813-0.0442zm-17.105 0.9233h2.1704c0.62157 0 1.0102-0.35033 1.0102-0.90757 0-0.53187-0.38859-0.90768-1.0102-0.90768h-2.1704c-0.0745 0-0.1345 0.06-0.1345 0.1348v1.5459c0 0.0745 0.06 0.13479 0.1345 0.13479zm8.8242 5.0916c0 0.0666-0.054 0.12063-0.12022 0.12063h-1.598c-0.0666 0-0.12062-0.0536-0.12062-0.12063v-8.4068c0-0.0666 0.054-0.12062 0.12062-0.12062h1.598c0.0664 0 0.12022 0.0536 0.12022 0.12062zm9.1858-20.128-15.847 11.601h0.40909c1.6447 0 2.4863 1.0499 2.4863 2.2038 0 0.89784-0.46854 1.5609-1.0973 1.854-0.10453 0.0488-0.10088 0.19691 7e-3 0.24053 0.73302 0.3002 1.2599 1.0856 1.2599 2.0028 0 1.3097-0.8548 2.3468-2.5122 2.3468h-4.5534c-0.0745 0-0.1348-0.06-0.1348-0.13481v-5.4854l-11.755 8.6054c-0.22506 0.16509-0.10876 0.52232 0.17055 0.52232h31.739c0.15932 0 0.28868-0.12929 0.28868-0.28898v-4.3523c-0.84933 0.79284-1.966 1.2894-3.3368 1.2894-2.538 0-4.6099-1.7502-4.6099-4.4734 0-2.7359 2.072-4.4731 4.6099-4.4731 1.5959 0 2.665 0.72382 3.3368 1.608v-12.833c0-0.23627-0.26838-0.37286-0.45932-0.23324zm-18.01 18.628h2.2481c0.68625 0 1.1006-0.36308 1.1006-0.98543 0-0.54426-0.38801-0.98531-1.1006-0.98531h-2.2481c-0.0745 0-0.1345 0.06-0.1345 0.1345v1.7014c0 0.0745 0.06 0.13479 0.1345 0.13479zm27.68-0.26233-0.99053-0.51424c-0.064-0.0336-0.14449-9e-3 -0.18297 0.0521-0.41887 0.65755-1.1917 1.1458-2.0316 1.1458-1.6487 0-2.8728-1.3224-2.8728-3.125 0-1.828 1.2241-3.1247 2.8728-3.1247 0.83929 0 1.6118 0.47608 2.031 1.1427 0.0391 0.0618 0.12062 0.086 0.1851 0.0512l0.98299-0.53622c0.0747-0.0409 0.10111-0.13419 0.0552-0.20627-0.62183-0.97989-1.6516-1.7996-3.2542-1.7996-2.4609 0-4.372 1.8025-4.372 4.4731 0 2.6581 1.9112 4.4734 4.372 4.4734 1.6008 0 2.6188-0.84139 3.2617-1.8219 0.0488-0.0745 0.0213-0.16904-0.0567-0.20992zm5.163 0.68341c-1.688 0-2.7634-1.3485-2.7634-3.125 0-1.789 1.0754-3.1247 2.7634-3.1247 1.6753 0 2.7631 1.3357 2.7631 3.1247 0 1.7765-1.0878 3.125-2.7631 3.125zm-1.1808-7.4469c-1.8572 0.49691-3.083 2.1704-3.083 4.3219 0 2.5804 1.7631 4.4734 4.2638 4.4734 2.1294 0 3.7369-1.3866 4.1561-3.4042 0.68278-3.2856-2.1982-6.2305-5.3368-5.3911zm15.817-9e-3h-1.8956c-0.0842 0-0.15994 0.0512-0.19084 0.12995l-2.2926 5.934-2.3056-5.9345c-0.031-0.0778-0.10659-0.12969-0.19084-0.12969h-1.8959c-0.0561 0-0.10145 0.0457-0.10145 0.10179v8.4447c0 0.056 0.0457 0.10179 0.10145 0.10179h1.3121c0.0561 0 0.10144-0.0457 0.10144-0.10179v-6.5757l2.6367 6.6315c0.012 0.0273 0.0378 0.0457 0.0675 0.0457h0.54853c0.0303 0 0.0567-0.0182 0.0675-0.0457l2.6237-6.6315v6.5757c0 0.056 0.0452 0.10179 0.10144 0.10179h1.3118c0.0564 0 0.10145-0.0457 0.10145-0.10179v-8.4447c0-0.056-0.0455-0.10179-0.10145-0.10179zm19.377 0h-5.606c-0.0864 0-0.15601 0.0697-0.15601 0.15631v8.3354c0 0.0864 0.0699 0.15631 0.15601 0.15631h5.606c0.0864 0 0.15631-0.0697 0.15631-0.15631v-1.0227c0-0.0864-0.0699-0.15631-0.15631-0.15631h-4.0906c-0.0864 0-0.15631-0.0697-0.15631-0.15631v-2.099c0-0.0864 0.07-0.15632 0.15631-0.15632h4.0002c0.0859 0 0.15632-0.0705 0.15632-0.15629v-1.0226c0-0.0864-0.0703-0.15631-0.15632-0.15631h-4.0002c-0.0864 0-0.15631-0.0697-0.15631-0.15629v-1.9173c0-0.0864 0.07-0.15631 0.15631-0.15631h4.0906c0.0864 0 0.15631-0.0706 0.15631-0.1563v-1.0227c0-0.0864-0.0699-0.15631-0.15631-0.15631zm5.9099 4.0842h-1.9302c-0.0855 0-0.1548-0.0697-0.1548-0.15509v-2.439c0-0.0855 0.0695-0.1548 0.1548-0.1548h1.9302c0.85424 0 1.4761 0.53187 1.4761 1.3617 0 0.84258-0.62185 1.3872-1.4761 1.3872zm1.1888 1.1221c0.96685-0.24385 1.841-1.0729 1.841-2.4966 0-1.6077-1.1265-2.7095-2.8359-2.7095h-3.6396c-0.0855 0-0.15477 0.069-0.15477 0.1548v8.338c0 0.0855 0.0693 0.1554 0.15477 0.1554h1.2056c0.0854 0 0.15508-0.0697 0.15508-0.1554v-2.9186c0-0.0855 0.0695-0.15479 0.1548-0.15479h1.272c0.0547 0 0.10544 0.0303 0.13328 0.076l1.8136 3.0765c0.0272 0.0472 0.0785 0.076 0.13328 0.076h1.3932c0.12142 0 0.19629-0.13329 0.13181-0.23658-0.39985-0.63974-1.4978-2.396-1.8589-2.9738-0.0576-0.0914-2e-3 -0.20538 0.10088-0.23173zm13.741-3.8709h4.0984c0.084 0 0.15207-0.0681 0.15207-0.15268v-1.0302c0-0.0842-0.0681-0.15269-0.15207-0.15269h-5.6137c-0.084 0-0.15237 0.069-0.15237 0.15269v8.343c0 0.0845 0.0686 0.15267 0.15237 0.15267h5.6137c0.084 0 0.15207-0.0681 0.15207-0.15267v-1.0302c0-0.084-0.0681-0.15238-0.15207-0.15238h-4.0984c-0.0842 0-0.15236-0.069-0.15236-0.15266v-2.1068c0-0.0845 0.0681-0.15267 0.15236-0.15267h4.0077c0.0842 0 0.15235-0.0681 0.15235-0.15266v-1.0302c0-0.0842-0.0681-0.15266-0.15235-0.15266h-4.0077c-0.0842 0-0.15236-0.0681-0.15236-0.15268v-1.9248c0-0.0845 0.0681-0.15267 0.15236-0.15267zm-3.2138 5.4006-0.99051-0.51423c-0.0639-0.033-0.14449-9e-3 -0.18296 0.0521-0.41887 0.65762-1.1918 1.1458-2.0316 1.1458-1.6488 0-2.8728-1.3224-2.8728-3.125 0-1.8279 1.2241-3.1246 2.8728-3.1246 0.83925 0 1.6118 0.47608 2.031 1.1426 0.0391 0.0624 0.12023 0.086 0.18508 0.0512l0.98305-0.5362c0.0747-0.0409 0.10087-0.1345 0.0552-0.20629-0.62187-0.97988-1.6516-1.7996-3.2542-1.7996-2.4609 0-4.372 1.8025-4.372 4.473 0 2.6582 1.9112 4.4734 4.372 4.4734 1.6006 0 2.6188-0.84139 3.2617-1.8218 0.0488-0.0745 0.0213-0.16902-0.0567-0.20992zm-25.816-6.7359h-1.8956c-0.0842 0-0.15995 0.0512-0.19086 0.12995l-2.2925 5.934-2.3055-5.9345c-0.031-0.0778-0.10659-0.12969-0.19085-0.12969h-1.8959c-0.0561 0-0.10144 0.0457-0.10144 0.10179v8.4447c0 0.056 0.0457 0.10179 0.10144 0.10179h1.3121c0.0561 0 0.10144-0.0457 0.10144-0.10179v-6.5757l2.6367 6.6315c0.012 0.0273 0.0378 0.0457 0.0675 0.0457h0.54853c0.0303 0 0.0567-0.0182 0.0675-0.0457l2.6237-6.6315v6.5757c0 0.056 0.0455 0.10179 0.10145 0.10179h1.3118c0.0564 0 0.10145-0.0457 0.10145-0.10179v-8.4447c0-0.056-0.0455-0.10179-0.10145-0.10179z" fill="#34313f" fill-rule="evenodd"/></g><g transform="translate(518.53 210.76)"><text transform="translate(-6.0123 3.5714)" x="26.073866" fill="#00c7ff" font-family="sans-serif" font-size="8.4667px" style="line-height:1.25;shape-inside:url(#rect869);white-space:pre" xml:space="preserve"><tspan x="-508.20964" y="-192.60468"><tspan fill="#00c7ff" font-family="FontAwesome" font-size="8.4667px" text-align="center" text-anchor="middle">SCHEDULE</tspan></tspan></text><path d="m-518.53-198.86h57.147c2.7869 0 5.0306 1.9126 5.0306 4.2884v4.6525c0 2.3758-2.2436 4.2884-5.0306 4.2884h-57.147z" fill="#34313f" stroke-width=".23151"/><text x="-514.19659" y="-189.65004" fill="#979797" font-family="sans-serif" font-size="7.0556px" stroke-width=".26458" style="line-height:1.25" xml:space="preserve"><tspan x="-514.19659" y="-189.65004" fill="#ffffff" font-size="7.0556px" stroke-width=".26458">BIGCOMMERCE</tspan></text></g><style type="text/css">.st0{fill:#00a3e0;}</style></svg>
