<?xml version="1.0" encoding="UTF-8"?>
<svg width="570" height="400" version="1.1" viewBox="0 0 150.81 105.83" xmlns="http://www.w3.org/2000/svg"><defs><style>.cls-1{fill:#a54544;}.cls-2{fill:#fc4f4f;}.cls-3{fill:#bebcbd;}.cls-4{fill:#e31c41;}.cls-5{fill:#59595b;}</style><style>.cls-1{fill:#265279;}.cls-2{fill:#fff;}</style><style>.cls-1{fill:#265279;}.cls-2{fill:#fff;}</style></defs><g transform="translate(518.53 210.76)"><rect x="-518.53" y="-210.76" width="150.81" height="105.83" fill="#fff" fill-opacity=".99842" fill-rule="evenodd" stroke-width=".066416"/><g transform="matrix(.56738 0 0 .56738 -488.09 -168.43)"><g><path d="m60.311 7.676c-2.83 0.045-5.386 1.706-6.577 4.275v-3.875h-5.098v29.23h5.272v-9.689s1.313 4.026 7.256 4.026c5.204 0 9.646-4.791 9.646-11.893 0-7.1-4.4-12.074-10.499-12.074m-0.784 18.74c-3.223 0-5.62-2.44-5.62-6.622 0-4.225 2.397-6.89 5.62-6.89 3.311 0 5.576 2.752 5.576 6.846 0 4.096-2.265 6.666-5.576 6.666m-42.695-26.416v10.903c-1.737-2.655-3.867-3.212-6.24-3.212-6.152 0-10.592 4.835-10.592 11.999s4.439 11.955 10.592 11.955c2.373 0 5.624-1.568 6.636-4.252v4.075h5.142v-31.468zm-5.45 26.37c-3.34 0-5.625-2.55-5.625-6.68 0-4.132 2.285-6.725 5.625-6.725 3.253 0 5.67 2.461 5.67 6.68 0 4.264-2.417 6.724-5.67 6.724m75.689-3.656c0 2.265-1.748 3.659-4.443 3.659-2.092 0-4.313-0.934-4.313-4.547v-13.75h-5.08v14.829c0 4.748 2.548 8.696 7.955 8.696 2.812 0 5.785-2.13 6.274-3.994v3.82h4.875v-23.351h-5.269v14.637zm12.401-19.292s-0.23 4.653-4.434 4.653v4.925h2.504v11.86c0 4.703 2.178 6.751 6.36 6.751 1.41-2e-3 2.813-0.192 4.172-0.566v-5.348c-0.98 0.45-2.047 0.685-3.127 0.687-1.132 0-2.111-0.48-2.111-1.96v-11.426h8.17l5.36 17.673-2.51 6.635h5.475l10.544-29.23h-5.663l-4.966 15.203-4.749-15.203h-11.661v-4.654zm-69.038 13.793h10.192c-0.134-2.924-1.74-4.726-4.675-4.726-3.07 0-5.116 1.896-5.517 4.726m6.195 14.484c-6.628 0-11.889-4.53-11.889-11.795 0-7.784 5.071-12.227 11.21-12.227 5.473 0 10.103 3.405 10.103 11.85 0 0.566-0.044 1.182-0.089 1.842h-15.574c0.223 3.397 3.336 5.048 7.134 5.048 4.908 0 7.474-1.755 7.474-1.755l0.03 5.02s-2.848 2.017-8.398 2.017"/></g><g fill="#f26a60"><path transform="translate(132.69)" d="m13.965 15.078-0.024 0.042c-0.203 0.35-0.363 0.725-0.478 1.113l-3.09 10.518h4.536l2.73-9.29c0.077-0.263 0.292-0.462 0.56-0.52 0.267-0.056 0.545 0.039 0.722 0.248l4.477 4.808 2.308-4.007-3.467-3.617c-1.067-1.257-2.676-1.92-4.319-1.78s-3.117 1.066-3.955 2.485m-3.021-1.709-0.024-0.042c-0.203-0.35-0.447-0.676-0.726-0.97l-7.564-7.937-2.37 3.821 6.783 7.119c0.19 0.198 0.254 0.484 0.17 0.744-0.085 0.26-0.306 0.453-0.575 0.502l-6.403 1.474 2.316 4.003 4.866-1.194c1.623-0.296 3.002-1.358 3.702-2.85 0.7-1.493 0.635-3.233-0.175-4.67m2.961-1.699h0.048c0.405 0 0.81-0.048 1.203-0.143l10.655-2.583-2.123-3.963-9.557 2.316c-0.266 0.065-0.546-0.022-0.729-0.225-0.183-0.204-0.24-0.492-0.148-0.75l1.926-6.28-4.625 5e-3 -1.399 4.81c-0.555 1.554-0.324 3.279 0.618 4.632 0.943 1.352 2.482 2.165 4.131 2.182"/></g></g></g><g transform="translate(518.53 210.76)"><path d="m-518.53-198.86h36.222c1.7665 0 3.1886 1.9126 3.1886 4.2884v4.6525c0 2.3758-1.4221 4.2884-3.1886 4.2884h-36.222z" fill="#f26a60" stroke-width=".18432"/><text x="-514.19659" y="-189.65004" fill="#979797" font-family="sans-serif" font-size="7.0556px" stroke-width=".26458" style="line-height:1.25" xml:space="preserve"><tspan x="-514.19659" y="-189.65004" fill="#ffffff" font-size="7.0556px" stroke-width=".26458">DEPUTY</tspan></text></g><style type="text/css">.st0{fill:#00a3e0;}</style><style type="text/css">.st0{fill:#FFFFFF;}</style></svg>
