<?xml version="1.0" encoding="UTF-8"?>
<svg width="570" height="400" version="1.1" viewBox="0 0 150.81 105.83" xmlns="http://www.w3.org/2000/svg" xmlns:cc="http://creativecommons.org/ns#" xmlns:dc="http://purl.org/dc/elements/1.1/" xmlns:rdf="http://www.w3.org/1999/02/22-rdf-syntax-ns#">
 <defs>
  <style>.cls-1{fill:#a54544;}.cls-2{fill:#fc4f4f;}.cls-3{fill:#bebcbd;}.cls-4{fill:#e31c41;}.cls-5{fill:#59595b;}</style>
 </defs>
 <metadata>
  <rdf:RDF>
   <cc:Work rdf:about="">
    <dc:format>image/svg+xml</dc:format>
    <dc:type rdf:resource="http://purl.org/dc/dcmitype/StillImage"/>
    <dc:title/>
   </cc:Work>
  </rdf:RDF>
 </metadata>
 <g transform="translate(518.53 210.76)">
  <rect x="-518.53" y="-210.76" width="150.81" height="105.83" fill="#fff" fill-opacity=".99842" fill-rule="evenodd" stroke-width=".066416"/>
 </g>
 <g transform="translate(518.53 210.76)">
  <path d="m-419.38-141.88c0.0499-0.36964-0.0507-0.74346-0.27916-1.0386-0.41558-0.53671-10.329-13.144-22.914-13.144-12.406 0-20.846 12.462-20.846 14.235 0 2.1002 9.3646 8.4916 20.846 8.4916 12.37 0 22.236-7.3054 22.65-7.6158 0.29795-0.22496 0.49357-0.55902 0.54369-0.92799zm-13.219-8.4971c0.45736 1.2948 0.82353 2.857 0.82353 4.0773 0 4.3718-2.6168 8.1373-6.3621 9.8338-2.7191 0.40654-7.5379 0.32022-9.0012-0.0621-4.6969-2.0251-7.3945-8.3197-5.6492-13.334 2.8584-1.9262 6.344-3.416 10.215-3.416 3.5928 0 6.9991 1.2287 9.9744 2.9009zm-27.817 8.2883c0.72886-1.2941 2.809-4.0147 5.833-6.4491-0.12047 0.69128-0.18022 1.4215-0.18022 2.2367 0 3.4891 1.4814 6.6315 3.8386 8.8557-4.6934-1.4362-8.2744-3.6562-9.4913-4.6433zm25.945 4.8709c2.5013-2.2339 4.0878-5.4724 4.0878-9.0826 0-0.93075-0.17681-1.9861-0.43579-2.9969 3.7237 2.433 6.5855 5.3715 7.9939 6.9503-1.9938 1.2753-6.2604 3.7118-11.646 5.1292zm-29.178-10.497c0.37035-0.58476 9.2114-14.329 21.076-14.329 11.83 0 22.353 13.823 22.795 14.412 0.23126 0.307 0.16918 0.74347-0.13787 0.9746-0.1253 0.0941-0.27222 0.14-0.41769 0.14-0.21153 0-0.42048-0.096-0.55691-0.27778-0.10446-0.13839-10.551-13.856-21.682-13.856-11.095 0-19.813 13.546-19.899 13.682-0.20601 0.32443-0.63629 0.4212-0.96066 0.21576-0.32443-0.20734-0.42117-0.63696-0.21576-0.96207zm21.076 6.3336c3.1417 0 5.6973-2.5556 5.6973-5.6972 0-3.1418-2.5556-5.6973-5.6973-5.6973-3.1417 0-5.6973 2.5555-5.6973 5.6973 7e-4 3.141 2.5556 5.6972 5.6973 5.6972zm0.89733-9.098v1.0435l-1.3053 1.3053v-1.0435zm0.62235-0.62235c0.24574 0.0935 0.47965 0.20732 0.7017 0.34181l-0.80196 0.80196v-1.0435zm2.3857 2.2221-0.65856 0.65857v-1.0442l0.27846-0.27844c0.14551 0.2089 0.27219 0.4316 0.3801 0.66411zm-6.1407 5.4724v-0.37523l1.3053-1.3053v1.0442l-0.87019 0.87017c-0.1505-0.0703-0.29515-0.14839-0.43507-0.2339zm-1.1438-1.0136 0.62165-0.62169v1.0442l-0.11627 0.11628c-0.18312-0.16576-0.35296-0.34528-0.50541-0.53881zm5.2991 1.1897c-0.16154 0.0808-0.3286 0.15183-0.50054 0.21234v-0.85347l1.3053-1.3053v1.1424zm-0.50054-1.3804v-1.0435l1.3053-1.3053v1.0435zm0-1.7821v-1.0442l1.3053-1.3053v1.0442zm-0.52209 0.52211-1.3053 1.3053v-1.0442l1.3053-1.3053zm-1.3053-0.47686v-1.0442l1.3053-1.3053v1.0442zm-0.52212 0.52209-1.3053 1.3053v-1.0442l1.3053-1.3053zm0 2.5208v0.42742c-0.11473-0.0263-0.2289-0.0529-0.3397-0.0876zm0.52212 0.51095v-1.0331l1.3053-1.3053v1.0435l-1.2949 1.2948h-0.01zm1.3053-0.55621v0.48174c-0.18232 0.0388-0.36966 0.0634-0.55971 0.0786zm2.9503-1.8086-0.60078 0.60147v-1.1424l1.0414-1.0414c-0.0445 0.56527-0.19839 1.0992-0.44065 1.5823zm0.43719-2.3182-1.0386 1.0387v-1.0435l0.86671-0.86672c0.0871 0.27917 0.14418 0.57156 0.17207 0.87159zm-1.5601-2.9308v0.92798l-1.3053 1.3052v-1.0442l1.2392-1.2391c0.0211 0.0184 0.0445 0.0321 0.0661 0.0499zm-3.6548 2.7999-1.3053 1.3053v-0.91125c0-0.0389-0.01-0.0752-0.0263-0.10792l1.3303-1.3303zm-1.8274 1.8274-0.92305 0.9231c-0.13446-0.22205-0.24918-0.45597-0.34186-0.70171l1.2649-1.2649zm2.7575-5.6026c0.3209 0 0.6321 0.0384 0.93282 0.10446-8e-3 0.0158-1.7863 1.8114-1.7863 1.8114-7.1e-4 6.8e-4 -7.1e-4 6.8e-4 -2e-3 2e-3l-3.3408 3.3401c-0.0697-0.30699-0.10995-0.62515-0.10995-0.95304 2e-3 -2.3732 1.9325-4.3043 4.3057-4.3043zm-28.426-5.3568v-19.512c0-0.76854 0.62373-1.3923 1.3923-1.3923h19.512c0.76855 0 1.3923 0.62373 1.3923 1.3923 0 0.76855-0.62376 1.3923-1.3923 1.3923h-18.119v18.119c0 0.76853-0.62375 1.3923-1.3923 1.3923-0.76854 0-1.3923-0.62373-1.3923-1.3923zm22.296 36.915c0 0.76855-0.62376 1.3923-1.3923 1.3923h-19.512c-0.76854 0-1.3923-0.62375-1.3923-1.3923v-19.512c0-0.76853 0.62373-1.3923 1.3923-1.3923 0.76856 0 1.3923 0.62377 1.3923 1.3923v18.119h18.119c0.76855 0 1.3923 0.62307 1.3923 1.3923zm14.619-56.427c0-0.76854 0.62376-1.3923 1.3923-1.3923h19.512c0.76854 0 1.3923 0.62373 1.3923 1.3923v19.512c0 0.76853-0.62376 1.3923-1.3923 1.3923-0.76856 0-1.3923-0.62373-1.3923-1.3923v-18.119h-18.119c-0.76855 0-1.3923-0.62305-1.3923-1.3923zm22.296 36.915v19.512c0 0.76855-0.62376 1.3923-1.3923 1.3923h-19.512c-0.76855 0-1.3923-0.62375-1.3923-1.3923 0-0.76856 0.62376-1.3923 1.3923-1.3923h18.119v-18.119c0-0.76853 0.62375-1.3923 1.3923-1.3923 0.76854 0 1.3923 0.62377 1.3923 1.3923zm-10.671 11.217c-0.27217-0.2722-0.27217-0.71215 0-0.98435 0.27221-0.27219 0.71217-0.27219 0.98436 0l2.7344 2.7345c0.27219 0.27219 0.27219 0.71215 0 0.98434-0.13576 0.13577-0.31396 0.20394-0.49217 0.20394-0.17811 0-0.35644-0.0682-0.49217-0.20394zm-3.2336-5.2023 1.8671 1.867c0.27218 0.27219 0.27218 0.71216 0 0.98436-0.13577 0.13575-0.31397 0.20391-0.49218 0.20391-0.17813 0-0.35645-0.0682-0.49218-0.20391l-1.867-1.8671c-0.2722-0.27218-0.2722-0.71217 0-0.98434 0.27217-0.2722 0.71215-0.2722 0.98434 0zm-31.305-29.336-2.0578-2.0578c-0.27218-0.2722-0.27218-0.71215 0-0.98437 0.2722-0.27218 0.71217-0.27218 0.98434 0l2.0578 2.0578c0.27219 0.27218 0.27219 0.71215 0 0.98434-0.13578 0.13577-0.31397 0.20391-0.49217 0.20391-0.17814 0-0.35645-0.068-0.49217-0.20391zm-3.3972-5.3659c0.27221 0.2722 0.27221 0.71214 0 0.98436-0.13577 0.13575-0.31395 0.20391-0.49218 0.20391-0.17813 0-0.35642-0.0682-0.49219-0.20391l-2.6676-2.6676c-0.27219-0.2722-0.27219-0.71217 0-0.98436 0.27218-0.27218 0.71215-0.27218 0.98434 0zm-3.652 41.654 2.6036-2.6036c0.2722-0.27221 0.71217-0.27221 0.98435 0 0.2722 0.2722 0.2722 0.71217 0 0.98435l-2.6036 2.6036c-0.13576 0.13576-0.31397 0.20391-0.49217 0.20391-0.17813 0-0.35644-0.0682-0.49217-0.20391-0.27153-0.27151-0.27153-0.71215 0-0.98436zm8.0259-7.0408c0.27219 0.27218 0.27219 0.71215 0 0.98435l-1.9583 1.9583c-0.13575 0.13577-0.31396 0.20391-0.49217 0.20391-0.17811 0-0.35643-0.0682-0.49217-0.20391-0.27218-0.27222-0.27218-0.71217 0-0.98436l1.9582-1.9583c0.2722-0.27219 0.71285-0.27219 0.98435 0zm29.769-29.073c-0.17813 0-0.35642-0.0682-0.49218-0.20392-0.27219-0.2722-0.27219-0.71215 0-0.98435l2.1177-2.1177c0.27219-0.27219 0.71214-0.27219 0.98435 0 0.27219 0.27219 0.27219 0.71216 0 0.98433l-2.1177 2.1177c-0.13577 0.13577-0.31395 0.20392-0.49218 0.20392zm7.5121-7.2232-2.3787 2.3787c-0.13578 0.13576-0.31396 0.20391-0.49218 0.20391-0.17813 0-0.35643-0.068-0.49216-0.20391-0.27221-0.2722-0.27221-0.71216 0-0.98435l2.3787-2.3788c0.27219-0.2722 0.71216-0.2722 0.98434 0 0.27219 0.2722 0.27153 0.71218 0 0.98437zm5.5602 18.554c-1.5246 0-2.7658 1.2405-2.7658 2.7658 0 1.5252 1.2405 2.7658 2.7658 2.7658 1.5252 0 2.7658-1.2405 2.7658-2.7658 0-1.5253-1.2406-2.7658-2.7658-2.7658zm0 4.1393c-0.75742 0-1.3735-0.61611-1.3735-1.3735 0-0.75742 0.61609-1.3735 1.3735-1.3735 0.75741 0 1.3735 0.61611 1.3735 1.3735 0 0.75739-0.61608 1.3735-1.3735 1.3735zm-53.661-1.3735c0-1.5246-1.2405-2.7658-2.7658-2.7658-1.5252 0-2.7658 1.2405-2.7658 2.7658 0 1.5252 1.2406 2.7658 2.7658 2.7658 1.5253 0 2.7658-1.2412 2.7658-2.7658zm-4.1393 0c0-0.75742 0.61611-1.3735 1.3735-1.3735 0.75742 0 1.3735 0.61611 1.3735 1.3735 0 0.75739-0.61611 1.3735-1.3735 1.3735-0.75738 0-1.3735-0.61611-1.3735-1.3735zm29.587-25.448c1.5245 0 2.7658-1.2405 2.7658-2.7658 0-1.5252-1.2405-2.7658-2.7658-2.7658-1.5253 0-2.7658 1.2406-2.7658 2.7658 0 1.5253 1.2412 2.7658 2.7658 2.7658zm0-4.1393c0.75739 0 1.3735 0.61611 1.3735 1.3735 0 0.75742-0.61611 1.3735-1.3735 1.3735-0.75742 0-1.3735-0.61611-1.3735-1.3735 0-0.75738 0.61611-1.3735 1.3735-1.3735zm0 55.035c-1.5246 0-2.7658 1.2405-2.7658 2.7658 0 1.5252 1.2405 2.7658 2.7658 2.7658 1.5252 0 2.7658-1.2406 2.7658-2.7658 0-1.5253-1.2412-2.7658-2.7658-2.7658zm0 4.1393c-0.75742 0-1.3735-0.61608-1.3735-1.3735 0-0.75742 0.61611-1.3735 1.3735-1.3735 0.75739 0 1.3735 0.61609 1.3735 1.3735 0 0.75741-0.61611 1.3735-1.3735 1.3735z" fill="#3c8000" fill-opacity=".58" stroke-width=".69615"/>
 </g>
 <g transform="translate(518.53 210.76)">
  <path d="m-518.53-198.86h61.695c3.0088 0 5.4309 1.9126 5.4309 4.2884v4.6525c0 2.3758-2.4222 4.2884-5.4309 4.2884h-61.695z" fill="#3c8000" fill-opacity=".58252" stroke-width=".24055"/>
  <text x="-514.19659" y="-189.65004" fill="#979797" font-family="sans-serif" font-size="7.0556px" stroke-width=".26458" style="line-height:1.25" xml:space="preserve"><tspan x="-514.19659" y="-189.65004" fill="#ffffff" font-size="7.0556px" stroke-width=".26458">DOCUMENT OCR</tspan></text>
 </g>
 <style type="text/css">.st0{fill:#00a3e0;}</style>
</svg>
