<?xml version="1.0" encoding="UTF-8"?>
<svg width="570" height="400" version="1.1" viewBox="0 0 150.81 105.83" xmlns="http://www.w3.org/2000/svg"><defs><marker id="marker3121" overflow="visible" orient="auto"><path transform="scale(.3) translate(-2.3)" d="m8.7186 4.0337-10.926-4.0177 10.926-4.0177c-1.7455 2.3721-1.7354 5.6175-6e-7 8.0354z" fill="#000000" fill-opacity=".88891" fill-rule="evenodd" stroke="#000000" stroke-linejoin="round" stroke-opacity=".88891" stroke-width=".625"/></marker><style>.cls-1{fill:#a54544;}.cls-2{fill:#fc4f4f;}.cls-3{fill:#bebcbd;}.cls-4{fill:#e31c41;}.cls-5{fill:#59595b;}</style></defs><g transform="translate(518.53 210.76)" fill="#ffffff"><rect x="-518.53" y="-210.76" width="150.81" height="105.83" fill="#ffffff" fill-opacity=".99842" fill-rule="evenodd" stroke-width=".066416"/></g><g transform="translate(518.53 210.76)"><path d="m-518.53-198.86h39.084c1.906 0 3.4405 1.9126 3.4405 4.2884v4.6525c0 2.3758-1.5345 4.2884-3.4405 4.2884h-39.084z" fill="#000000" stroke-width=".94965"/><text x="-514.19659" y="-189.65004" fill="#979797" font-family="sans-serif" font-size="7.0556px" stroke-width=".26458" style="line-height:1.25" xml:space="preserve"><tspan x="-514.19659" y="-189.65004" fill="#ffffff" font-size="7.0556px" stroke-width=".26458">ITERATOR</tspan></text></g><style type="text/css">.st0{fill:#00a3e0;}</style><path d="m104.19 71.921a32.591 32.591 0 0 1-36.83 11.896 32.591 32.591 0 0 1-22.227-31.685 32.591 32.591 0 0 1 23.723-30.581 32.591 32.591 0 0 1 36.216 13.651" fill="none" marker-start="url(#marker3121)" stroke="#000000" stroke-linecap="round" stroke-linejoin="round" stroke-opacity=".88891" stroke-width="3.9687" style="paint-order:normal"/><g transform="matrix(1.2261 0 0 1.2261 -25.441 -123.48)" stroke="#000000"><rect x="68.473" y="129.06" width="24.9" height="26.952" ry="3.3714" fill="#ffffff" fill-rule="evenodd" stroke-linecap="round" stroke-linejoin="round" stroke-opacity=".88891" stroke-width="1.1086" style="paint-order:normal"/><rect x="71.119" y="131.71" width="24.9" height="26.952" ry="3.3714" fill="#ffffff" fill-rule="evenodd" stroke-linecap="round" stroke-linejoin="round" stroke-opacity=".88891" stroke-width="1.1086" style="paint-order:normal"/><g transform="translate(.08026 -1.0586)" fill="none" stroke-width=".66145"><path d="m75.566 137.51h15.846"/><path d="m75.566 139.1h15.846"/><path d="m75.566 140.69h15.846"/><path d="m75.566 142.27h15.846"/><path d="m75.566 143.86h15.846"/><path d="m75.566 145.45h15.846"/><path d="m75.566 147.04h15.846"/><path d="m75.566 148.62h15.846"/><path d="m75.566 150.21h15.846"/><path d="m75.566 151.8h15.846"/><path d="m75.566 153.39h15.846"/><path d="m75.566 154.97h15.846"/></g></g></svg>
