<?xml version="1.0" encoding="UTF-8"?>
<svg width="570" height="400" version="1.1" viewBox="0 0 150.81 105.83" xmlns="http://www.w3.org/2000/svg"><defs><style>.cls-1{fill:#a54544;}.cls-2{fill:#fc4f4f;}.cls-3{fill:#bebcbd;}.cls-4{fill:#e31c41;}.cls-5{fill:#59595b;}</style></defs><g transform="translate(518.53 210.76)"><rect x="-518.53" y="-210.76" width="150.81" height="105.83" fill="#fff" fill-opacity=".99842" fill-rule="evenodd" stroke-width=".066416"/></g><g transform="translate(518.53 210.76)"><g transform="matrix(1.0333 0 0 1.0306 -476.71 -191.34)" fill="#00c7ff"><g fill="#00c7ff" stroke="#000" stroke-linejoin="round" stroke-miterlimit="10" stroke-width="2"><line x1="1.5" x2="7.8" y1="24.5" y2="19.8"/><line x1="63.5" x2="57.2" y1="24.5" y2="19.8"/><polyline points="7.8 29.5 7.8 7.3 40.3 7.3 57.2 7.3 57.2 29.2"/><polyline points="24.7 7.3 32.5 1.5 40.3 7.3"/><line x1="23.2" x2="41.8" y1="13.8" y2="13.8"/><line x1="14.1" x2="50.9" y1="20.9" y2="20.9"/><line x1="14.1" x2="50.9" y1="27.9" y2="27.9"/><line x1="14.1" x2="50.9" y1="34.8" y2="34.8"/><line x1="22.9" x2="41.8" y1="41.8" y2="41.8"/><polygon points="1.5 24.5 1.5 63.5 26.6 44.9"/><polygon points="63.5 63.5 63.5 24.5 38.4 44.9"/><polygon points="1.5 63.5 63.5 63.5 38.4 44.9 32.5 49.6 26.6 44.9"/></g></g></g><g transform="translate(518.53 210.76)"><path d="m-518.53-198.86h43.338c2.1135 0 3.815 1.9126 3.815 4.2884v4.6525c0 2.3758-1.7015 4.2884-3.815 4.2884h-43.338z" fill="#00c7ff" stroke-width=".20161"/><text x="-514.19659" y="-189.65004" fill="#979797" font-family="sans-serif" font-size="7.0556px" stroke-width=".26458" style="line-height:1.25" xml:space="preserve"><tspan x="-514.19659" y="-189.65004" fill="#ffffff" font-size="7.0556px" stroke-width=".26458">MAILHOOK</tspan></text></g><style type="text/css">.st0{fill:#00a3e0;}</style></svg>
