<?xml version="1.0" encoding="UTF-8"?>
<svg width="570" height="400" version="1.1" viewBox="0 0 150.81 105.83" xmlns="http://www.w3.org/2000/svg"><defs><style>.cls-1{fill:#a54544;}.cls-2{fill:#fc4f4f;}.cls-3{fill:#bebcbd;}.cls-4{fill:#e31c41;}.cls-5{fill:#59595b;}</style></defs><g transform="translate(518.53 210.76)"><rect x="-518.53" y="-210.76" width="150.81" height="105.83" fill="#fff" fill-opacity=".99842" fill-rule="evenodd" stroke-width=".066416"/></g><g transform="translate(518.53 210.76)"><g transform="matrix(.29236 0 0 .29236 -515.34 -230.61)" fill="#5873b4"><g fill="#5873b4"><path d="m167.8 217.9h-69.9c-4.4 0-8-3.6-8-8s3.6-8 8-8h69.9c4.4 0 8 3.6 8 8s-3.6 8-8 8z"/><path d="m143.8 256.9h-69.8c-4.4 0-8-3.6-8-8s3.6-8 8-8h69.9c4.4 0 8 3.6 8 8s-3.6 8-8.1 8z"/><path d="m167.8 295.8h-69.9c-4.4 0-8-3.6-8-8s3.6-8 8-8h69.9c4.4 0 8 3.6 8 8s-3.6 8-8 8z"/><path d="m188.3 182v133.8h239.7v-133.8zm94.2 65.6-81 50v-94.2zm-68.3-52.4h188.8l-91.1 53.3zm81.7 59.7 7 3.8 9.2 5 3.2-1.9 12.3-6.9 71.2 47.5h-180zm44.2-7.5 74.7-43.7v93.6z"/></g></g></g><g transform="translate(518.53 210.76)"><path d="m-518.53-198.86h32.372c1.5787 0 2.8497 1.9126 2.8497 4.2884v4.6525c0 2.3758-1.271 4.2884-2.8497 4.2884h-32.372z" fill="#5873b4" stroke-width=".17425"/><text x="-514.19659" y="-189.65004" fill="#979797" font-family="sans-serif" font-size="7.0556px" stroke-width=".26458" style="line-height:1.25" xml:space="preserve"><tspan x="-514.19659" y="-189.65004" fill="#ffffff" font-size="7.0556px" stroke-width=".26458">MAILER</tspan></text></g><style type="text/css">.st0{fill:#00a3e0;}</style></svg>
