<?xml version="1.0" encoding="UTF-8"?>
<svg width="570" height="400" version="1.1" viewBox="0 0 150.81 105.83" xmlns="http://www.w3.org/2000/svg"><g transform="translate(518.53 210.76)"><rect x="-518.53" y="-210.76" width="150.81" height="105.83" fill="#fff" fill-opacity=".99842" fill-rule="evenodd" stroke-width=".066416"/><g transform="matrix(.78468 0 0 .74031 -485.54 -174.87)"><path class="st0" d="m60.4 45.3c-0.1-0.1-0.2-0.3-0.2-0.5 0-0.3 0.3-0.6 0.6-0.6 0.2 0 0.3 0.1 0.4 0.1 0.4 0.3 0.9 0.5 1.4 0.5s0.8-0.2 0.8-0.5-0.2-0.5-1.1-0.7c-1.1-0.3-1.9-0.6-1.9-1.7 0-1 0.8-1.7 2-1.7 0.7 0 1.3 0.2 1.8 0.5 0.1 0.1 0.3 0.2 0.3 0.5s-0.3 0.6-0.6 0.6c-0.1 0-0.2 0-0.3-0.1-0.4-0.2-0.8-0.4-1.2-0.4-0.5 0-0.7 0.2-0.7 0.5 0 0.4 0.2 0.5 1.2 0.7 1.1 0.3 1.8 0.7 1.8 1.7 0 1.1-0.8 1.7-2.1 1.7-0.8 0.1-1.6-0.1-2.2-0.6z"/><path class="st0" d="m68.5 43.8-1.8-2.5c-0.1-0.1-0.2-0.3-0.2-0.4 0-0.3 0.3-0.6 0.6-0.6s0.5 0.2 0.6 0.4l1.4 2 1.4-2c0.2-0.2 0.3-0.4 0.6-0.4 0.4 0 0.6 0.3 0.6 0.6 0 0.2-0.1 0.3-0.2 0.4l-1.8 2.4v1.6c0 0.3-0.3 0.6-0.6 0.6s-0.6-0.3-0.6-0.6z"/><path class="st0" d="m73.9 45.3c-0.1-0.1-0.2-0.3-0.2-0.5 0-0.3 0.3-0.6 0.6-0.6 0.2 0 0.3 0.1 0.4 0.1 0.4 0.3 0.9 0.5 1.4 0.5s0.8-0.2 0.8-0.5-0.2-0.5-1.1-0.7c-1.1-0.3-1.9-0.6-1.9-1.7 0-1 0.8-1.7 2-1.7 0.7 0 1.3 0.2 1.8 0.5 0.1 0.1 0.3 0.2 0.3 0.5s-0.3 0.6-0.6 0.6c-0.1 0-0.2 0-0.3-0.1-0.4-0.2-0.8-0.4-1.2-0.4-0.5 0-0.7 0.2-0.7 0.5 0 0.4 0.2 0.5 1.2 0.7 1.1 0.3 1.8 0.7 1.8 1.7 0 1.1-0.8 1.7-2.1 1.7-0.8 0.1-1.6-0.1-2.2-0.6z"/><path class="st0" d="m81.9 41.5h-1.2c-0.3 0-0.6-0.3-0.6-0.6s0.3-0.6 0.6-0.6h3.6c0.3 0 0.6 0.3 0.6 0.6s-0.3 0.6-0.6 0.6h-1.2v3.9c0 0.3-0.3 0.6-0.6 0.6s-0.6-0.3-0.6-0.6z"/><path class="st0" d="m87.4 45.3v-4.4c0-0.3 0.3-0.6 0.6-0.6h3.1c0.3 0 0.6 0.2 0.6 0.6 0 0.3-0.2 0.5-0.6 0.5h-2.5v1.1h2.1c0.3 0 0.6 0.2 0.6 0.6s-0.2 0.5-0.6 0.5h-2.1v1.2h2.5c0.3 0 0.6 0.2 0.6 0.6 0 0.3-0.2 0.5-0.6 0.5h-3.1c-0.3 0-0.6-0.3-0.6-0.6z"/><path class="st0" d="m94.4 40.9c0-0.3 0.3-0.6 0.6-0.6h0.1c0.3 0 0.4 0.1 0.6 0.3l1.5 2.4 1.5-2.4c0.1-0.2 0.3-0.3 0.6-0.3h0.1c0.3 0 0.6 0.3 0.6 0.6v4.4c0 0.3-0.3 0.6-0.6 0.6s-0.6-0.3-0.6-0.6v-2.8l-1.1 1.7c-0.1 0.2-0.3 0.3-0.5 0.3s-0.4-0.1-0.5-0.3l-1.1-1.6v2.8c0 0.3-0.3 0.6-0.6 0.6s-0.6-0.3-0.6-0.6z"/><path class="st0" d="m102.8 45.3c-0.1-0.1-0.2-0.3-0.2-0.5 0-0.3 0.3-0.6 0.6-0.6 0.2 0 0.3 0.1 0.4 0.1 0.4 0.3 0.9 0.5 1.4 0.5s0.8-0.2 0.8-0.5-0.2-0.5-1.1-0.7c-1.1-0.3-1.9-0.6-1.9-1.7 0-1 0.8-1.7 2-1.7 0.7 0 1.3 0.2 1.8 0.5 0.1 0.1 0.3 0.2 0.3 0.5s-0.3 0.6-0.6 0.6c-0.1 0-0.2 0-0.3-0.1-0.4-0.2-0.8-0.4-1.2-0.4-0.5 0-0.7 0.2-0.7 0.5 0 0.4 0.2 0.5 1.2 0.7 1.1 0.3 1.8 0.7 1.8 1.7 0 1.1-0.8 1.7-2.1 1.7-0.8 0.1-1.5-0.1-2.2-0.6z"/><path class="st0" d="m0.1 5c0-1.9 1.5-3.4 3.4-3.4h10.8c3.9 0 7 1.1 9 3.1 1.7 1.7 2.7 4.2 2.7 7.1v0.1c0 4.9-2.4 7.9-6.2 9.4l4.7 5.8c0.7 0.8 1.1 1.6 1.1 2.6 0 1.9-1.6 3.1-3.2 3.1s-2.6-0.8-3.4-1.8l-6.6-8.4h-5.5v6.8c0 1.9-1.5 3.4-3.4 3.4s-3.4-1.5-3.4-3.4v-24.4zm13.7 11.7c3.3 0 5.2-1.8 5.2-4.4v-0.1c0-2.9-2-4.4-5.4-4.4h-6.7v8.9z"/><path class="st0" d="m40 33.1c-7.1 0-12.4-5-12.4-12.3v-0.1c0-6.8 4.8-12.4 11.7-12.4 7.9 0 11.4 6.5 11.4 11.4 0 1.9-1.4 3.2-3.1 3.2h-13.3c0.7 3.1 2.8 4.7 5.8 4.7 1.9 0 3.4-0.6 4.8-1.6 0.5-0.4 0.9-0.5 1.6-0.5 1.5 0 2.6 1.2 2.6 2.7 0 0.9-0.4 1.6-0.9 2-2 1.8-4.7 2.9-8.2 2.9zm4.4-14.2c-0.4-3-2.2-5.1-5-5.1s-4.6 2-5.1 5.1z"/><path class="st0" d="m63 33.1h-0.4c-1.8 0-3.1-1.2-3.8-2.9l-7.3-16.8c-0.2-0.4-0.4-1-0.4-1.6 0-1.6 1.5-3.1 3.3-3.1s2.8 1 3.3 2.4l5.1 13.8 5.2-13.9c0.4-1.2 1.4-2.3 3.1-2.3 1.8 0 3.2 1.4 3.2 3.2 0 0.6-0.2 1.3-0.4 1.6l-7.3 16.8c-0.5 1.6-1.7 2.8-3.6 2.8z"/><path class="st0" d="m87.2 33.1c-7.1 0-12.4-5-12.4-12.3v-0.1c0-6.8 4.8-12.4 11.7-12.4 7.9 0 11.4 6.5 11.4 11.4 0 1.9-1.4 3.2-3.1 3.2h-13.4c0.7 3.1 2.8 4.7 5.8 4.7 1.9 0 3.4-0.6 4.8-1.6 0.5-0.4 0.9-0.5 1.6-0.5 1.5 0 2.6 1.2 2.6 2.7 0 0.9-0.4 1.6-0.9 2-2 1.8-4.7 2.9-8.1 2.9zm4.3-14.2c-0.4-3-2.2-5.1-5-5.1s-4.6 2-5.1 5.1z"/><path class="st0" d="m101.2 3.4c0-1.9 1.5-3.4 3.4-3.4s3.4 1.5 3.4 3.4v26.1c0 1.9-1.5 3.4-3.4 3.4s-3.4-1.5-3.4-3.4z"/></g></g><g transform="translate(518.53 210.76)"><text transform="translate(-6.0123 3.5714)" x="26.073866" fill="#00c7ff" font-family="sans-serif" font-size="8.4667px" style="line-height:1.25;shape-inside:url(#rect869);white-space:pre" xml:space="preserve"><tspan x="-508.20964" y="-192.60468"><tspan fill="#00c7ff" font-family="FontAwesome" font-size="8.4667px" text-align="center" text-anchor="middle">SCHEDULE</tspan></tspan></text><path d="m-518.53-198.86h48.635c2.3718 0 4.2813 1.9126 4.2813 4.2884v4.6525c0 2.3758-1.9095 4.2884-4.2813 4.2884h-48.635z" fill="#00a3e0" stroke-width=".21358"/><text x="-514.19659" y="-189.65004" fill="#979797" font-family="sans-serif" font-size="7.0556px" stroke-width=".26458" style="line-height:1.25" xml:space="preserve"><tspan x="-514.19659" y="-189.65004" fill="#ffffff" font-size="7.0556px" stroke-width=".26458">REVEL POS</tspan></text></g><style type="text/css">.st0{fill:#00a3e0;}</style></svg>
