<?xml version="1.0" encoding="UTF-8"?>
<svg width="570" height="400" version="1.1" viewBox="0 0 150.81 105.83" xmlns="http://www.w3.org/2000/svg"><defs><style>.cls-1{fill:#a54544;}.cls-2{fill:#fc4f4f;}.cls-3{fill:#bebcbd;}.cls-4{fill:#e31c41;}.cls-5{fill:#59595b;}</style></defs><g transform="translate(518.53 210.76)"><rect x="-518.53" y="-210.76" width="150.81" height="105.83" fill="#fff" fill-opacity=".99842" fill-rule="evenodd" stroke-width=".066416"/></g><g transform="translate(518.53 210.76)"><g transform="matrix(1.378 0 0 1.376 -476.2 -190.87)" fill="#00c7ff"><rect x="23.5" y="8.5" width="1" height="3"/><rect x="36.5" y="23.5" width="3" height="1"/><rect x="23.5" y="36.5" width="1" height="3"/><rect x="8.5" y="23.5" width="3" height="1"/><path d="m33.71 14.29a1 1 0 0 0-1.42 0l-8.29 8.3-5.29-5.3a1.0041 1.0041 0 0 0-1.42 1.42l5.3 5.29-1.3 1.29a1 1 0 0 0 0 1.42 1 1 0 0 0 1.42 0l1.29-1.3 1.29 1.3a1 1 0 0 0 1.42 0 1 1 0 0 0 0-1.42l-1.3-1.29 8.3-8.29a1 1 0 0 0 0-1.42z"/><path d="m24 43a19 19 0 0 0 18-25 0.5 0.5 0 0 0-0.63-0.32 0.52 0.52 0 0 0-0.32 0.64 18 18 0 0 1-28.5 19.57 0.49 0.49 0 0 0-0.7 0.07 0.49 0.49 0 0 0 0.06 0.7 19 19 0 0 0 12.09 4.34z"/><path d="m35.37 10a0.49 0.49 0 0 0 0.7-0.07 0.49 0.49 0 0 0-0.07-0.7 19 19 0 0 0-30.06 20.68 0.5 0.5 0 0 0 0.47 0.35 0.45 0.45 0 0 0 0.16 0 0.5 0.5 0 0 0 0.32-0.63 18 18 0 0 1 28.48-19.63z"/><path d="m47 23a1 1 0 0 0-1 1 22 22 0 0 1-39.18 13.74l3.23-2.25-9.05-4.23 0.85 9.93 3.3-2.3a24 24 0 0 0 42.85-14.89 1 1 0 0 0-1-1z"/><path d="m2 24a22 22 0 0 1 39.18-13.74l-3.18 2.25 9 4.23-0.85-9.93-3.3 2.3a24 24 0 0 0-42.85 14.89 1 1 0 0 0 2 0z"/></g></g><g transform="translate(518.53 210.76)"><path d="m-518.53-198.86h43.338c2.1135 0 3.815 1.9126 3.815 4.2884v4.6525c0 2.3758-1.7015 4.2884-3.815 4.2884h-43.338z" fill="#00c7ff" stroke-width=".20161"/><text x="-514.19659" y="-189.65004" fill="#979797" font-family="sans-serif" font-size="7.0556px" stroke-width=".26458" style="line-height:1.25" xml:space="preserve"><tspan x="-514.19659" y="-189.65004" fill="#ffffff" font-size="7.0556px" stroke-width=".26458">SCHEDULE</tspan></text></g><style type="text/css">.st0{fill:#00a3e0;}</style></svg>
