<?xml version="1.0" encoding="UTF-8" standalone="no"?>
<svg
   xmlns:dc="http://purl.org/dc/elements/1.1/"
   xmlns:cc="http://creativecommons.org/ns#"
   xmlns:rdf="http://www.w3.org/1999/02/22-rdf-syntax-ns#"
   xmlns:svg="http://www.w3.org/2000/svg"
   xmlns="http://www.w3.org/2000/svg"
   width="570"
   height="400"
   viewBox="0 0 150.81249 105.83333"
   version="1.1"
   id="svg8">
  <defs
     id="defs2">
    <rect
       x="-518.59998"
       y="-200.09538"
       width="66.586761"
       height="15.28125"
       id="rect869" />
    <style
       id="style939">.cls-1{fill:#a54544;}.cls-2{fill:#fc4f4f;}.cls-3{fill:#bebcbd;}.cls-4{fill:#e31c41;}.cls-5{fill:#59595b;}</style>
  </defs>
  <metadata
     id="metadata5">
    <rdf:RDF>
      <cc:Work
         rdf:about="">
        <dc:format>image/svg+xml</dc:format>
        <dc:type
           rdf:resource="http://purl.org/dc/dcmitype/StillImage" />
        <dc:title></dc:title>
      </cc:Work>
    </rdf:RDF>
  </metadata>
  <g
     id="layer1"
     style="display:inline"
     transform="translate(518.53052,210.76158)">
    <rect
       style="fill:#ffffff;fill-opacity:0.99842155;fill-rule:evenodd;stroke-width:0.0664156;stroke-miterlimit:4;stroke-dasharray:none"
       id="rect18"
       width="150.8125"
       height="105.83333"
       x="-518.53052"
       y="-210.76158" />
    <g
       id="Layer_1-2"
       data-name="Layer 1"
       transform="matrix(0.26458332,0,0,0.26458332,-496.18248,-171.20571)">
      <polygon
         class="cls-1"
         points="36.62,46.38 0,72.55 47.32,90.56 48.42,50.82 "
         id="polygon943" />
      <polygon
         class="cls-1"
         points="0,70.12 36.91,43.74 36.91,36.44 0,26.18 "
         id="polygon945" />
      <path
         class="cls-2"
         d="m 105.67,46.58 v -20.1 h 8.86 v 19.8 c 0,4 2.43,6.88 7.13,6.88 4.7,0 7.09,-2.88 7.09,-6.88 v -19.8 h 8.8 v 20.05 c 0,8.4 -5.06,14.32 -15.89,14.32 -10.83,0 -16,-6 -16,-14.27"
         id="path947" />
      <polygon
         class="cls-2"
         points="141.62,26.48 150.58,26.48 164.25,45.06 164.25,26.48 173,26.48 173,60.24 164.6,60.24 150.32,40.71 150.32,60.24 141.62,60.24 "
         id="polygon949" />
      <polygon
         class="cls-2"
         points="178.94,60.24 178.94,26.48 187.64,26.48 187.64,52.65 201.21,52.65 201.21,60.24 "
         id="polygon951" />
      <polygon
         class="cls-2"
         points="204.67,60.24 204.67,26.48 229.41,26.48 229.41,34.08 213.37,34.08 213.37,39.34 229.06,39.34 229.06,46.94 213.37,46.94 213.37,52.65 229.41,52.65 229.41,60.24 "
         id="polygon953" />
      <path
         class="cls-2"
         d="m 258.43,60.25 -1.67,-4.86 h -13.31 l -1.67,4.86 h -9.87 l 12.7,-33.77 h 11 l 12.7,33.77 z m -8.3,-25.16 -4.3,12.71 h 8.55 z"
         id="path955" />
      <path
         class="cls-2"
         d="m 268.17,55.49 4.6,-6.78 a 15.33,15.33 0 0 0 10.83,4.45 c 2.94,0 4.76,-1 4.76,-2.68 0,-4.45 -19.08,-0.76 -19.08,-13.77 C 269.28,31 274,26 282.69,26 a 20.58,20.58 0 0 1 13.72,4.71 l -4.76,6.53 a 15.65,15.65 0 0 0 -9.87,-3.55 c -2.53,0 -3.64,0.86 -3.64,2.33 0,4.15 19.08,1 19.08,13.57 0,6.78 -5,11.28 -14.07,11.28 -6.83,0 -11.59,-2.17 -15,-5.36"
         id="path957" />
      <polygon
         class="cls-2"
         points="324,60.24 324,46.69 309.99,46.69 309.99,60.24 301.28,60.24 301.28,26.48 309.99,26.48 309.99,39.09 324,39.09 324,26.48 332.71,26.48 332.71,60.24 "
         id="polygon959" />
      <polygon
         class="cls-2"
         points="338.81,60.24 338.81,26.48 363.55,26.48 363.55,34.08 347.51,34.08 347.51,39.34 363.2,39.34 363.2,46.94 347.51,46.94 347.51,52.65 363.55,52.65 363.55,60.24 "
         id="polygon961" />
      <path
         class="cls-2"
         d="M 368.63,60.24 V 26.48 h 14.17 c 10.63,0 18.27,6.39 18.27,16.86 0,10.47 -7.64,16.9 -18.22,16.9 z m 23.54,-16.9 c 0,-5.21 -3.14,-9.26 -9.32,-9.26 h -5.52 v 18.57 h 5.47 a 9,9 0 0 0 9.37,-9.31"
         id="path963" />
      <polygon
         class="cls-2"
         points="84.22,20.44 47.32,46.82 47.32,50.42 47.32,90.56 84.22,64.38 "
         id="polygon965" />
      <polygon
         class="cls-2"
         points="36.91,40.14 47.6,44.18 84.22,18.01 36.91,0 0,26.18 "
         id="polygon967" />
      <path
         class="cls-3"
         d="m 114.38,92.09 -0.27,-1.87 H 114 a 5.57,5.57 0 0 1 -1.83,1.61 4.9,4.9 0 0 1 -2.21,0.47 3.81,3.81 0 0 1 -2.7,-0.89 3.17,3.17 0 0 1 -1,-2.45 3.05,3.05 0 0 1 1.43,-2.68 7.81,7.81 0 0 1 4.16,-1 l 2.24,-0.07 v -0.78 a 4,4 0 0 0 -0.69,-2.53 2.63,2.63 0 0 0 -2.19,-0.86 7.44,7.44 0 0 0 -3.39,0.91 l -0.4,-0.93 a 9.05,9.05 0 0 1 3.83,-0.91 3.84,3.84 0 0 1 2.9,1 4.47,4.47 0 0 1 1,3.14 v 7.83 z m -4.33,-0.76 a 3.74,3.74 0 0 0 4.06,-4.07 V 86.1 l -2,0.09 a 7.77,7.77 0 0 0 -3.54,0.77 2.24,2.24 0 0 0 -1,2 2.2,2.2 0 0 0 0.67,1.72 2.79,2.79 0 0 0 1.81,0.65 z"
         id="path969" />
      <path
         class="cls-3"
         d="m 127.19,92.09 v -7.64 a 3.72,3.72 0 0 0 -0.75,-2.58 3,3 0 0 0 -2.31,-0.8 4,4 0 0 0 -3.13,1.06 5,5 0 0 0 -1,3.46 v 6.5 h -1 V 80.32 h 0.91 l 0.21,1.61 h 0.06 c 0.77,-1.22 2.13,-1.84 4.08,-1.84 q 4,0 4,4.3 v 7.7 z"
         id="path971" />
      <path
         class="cls-3"
         d="m 258.12,92.3 a 5,5 0 0 1 -4,-1.59 6.42,6.42 0 0 1 -1.43,-4.44 6.51,6.51 0 0 1 1.48,-4.55 5.24,5.24 0 0 1 4.06,-1.63 8.21,8.21 0 0 1 2.92,0.53 l -0.29,1 a 8.56,8.56 0 0 0 -2.65,-0.51 4,4 0 0 0 -3.21,1.29 5.89,5.89 0 0 0 -1.11,3.85 5.7,5.7 0 0 0 1.11,3.75 3.81,3.81 0 0 0 3.12,1.35 7.46,7.46 0 0 0 3,-0.58 v 1 a 6.69,6.69 0 0 1 -3,0.53 z"
         id="path973" />
      <path
         class="cls-3"
         d="m 273.68,86.19 a 6.63,6.63 0 0 1 -1.39,4.49 4.83,4.83 0 0 1 -3.86,1.62 5,5 0 0 1 -2.72,-0.74 4.8,4.8 0 0 1 -1.81,-2.15 7.74,7.74 0 0 1 -0.63,-3.22 6.63,6.63 0 0 1 1.4,-4.49 4.82,4.82 0 0 1 3.83,-1.61 4.72,4.72 0 0 1 3.8,1.63 6.71,6.71 0 0 1 1.38,4.47 z m -9.28,0 a 6,6 0 0 0 1.06,3.81 4,4 0 0 0 6,0 6,6 0 0 0 1.07,-3.78 5.87,5.87 0 0 0 -1.08,-3.78 4.07,4.07 0 0 0 -6,0 6,6 0 0 0 -1.05,3.75 z"
         id="path975" />
      <path
         class="cls-3"
         d="m 291.64,92.09 v -7.72 a 3.81,3.81 0 0 0 -0.67,-2.51 2.54,2.54 0 0 0 -2.06,-0.79 3.37,3.37 0 0 0 -2.67,1 4.7,4.7 0 0 0 -0.87,3.13 v 6.9 h -1.09 V 84 q 0,-3 -2.73,-3 a 3.23,3.23 0 0 0 -2.69,1.07 5.64,5.64 0 0 0 -0.85,3.45 v 6.5 h -1.07 v -11.7 h 0.89 l 0.23,1.61 h 0.06 a 3.5,3.5 0 0 1 1.39,-1.36 4.14,4.14 0 0 1 2,-0.48 c 1.85,0 3,0.7 3.57,2.09 v 0 a 4,4 0 0 1 1.55,-1.55 4.43,4.43 0 0 1 2.2,-0.54 3.8,3.8 0 0 1 2.89,1 4.7,4.7 0 0 1 1,3.27 v 7.7 z"
         id="path977" />
      <path
         class="cls-3"
         d="m 301.55,92.3 a 4.31,4.31 0 0 1 -4,-2 h -0.07 v 0.91 c 0,0.53 0,1.11 0,1.75 v 4.48 h -1.07 V 80.32 h 0.91 l 0.21,1.68 h 0.06 a 4.26,4.26 0 0 1 3.88,-1.91 4.37,4.37 0 0 1 3.63,1.57 7.17,7.17 0 0 1 1.25,4.55 6.9,6.9 0 0 1 -1.32,4.5 4.39,4.39 0 0 1 -3.48,1.59 z m 0,-1 a 3.28,3.28 0 0 0 2.8,-1.34 6.25,6.25 0 0 0 1,-3.76 c 0,-3.46 -1.25,-5.18 -3.74,-5.18 a 3.73,3.73 0 0 0 -3,1.13 5.59,5.59 0 0 0 -1,3.68 v 0.35 a 6.46,6.46 0 0 0 0.93,3.94 3.59,3.59 0 0 0 2.98,1.23 z"
         id="path979" />
      <path
         class="cls-3"
         d="m 316.85,92.09 -0.27,-1.87 h -0.09 a 5.54,5.54 0 0 1 -1.82,1.61 4.9,4.9 0 0 1 -2.21,0.47 3.79,3.79 0 0 1 -2.7,-0.89 3.17,3.17 0 0 1 -1,-2.45 3.05,3.05 0 0 1 1.43,-2.68 7.8,7.8 0 0 1 4.15,-1 l 2.24,-0.07 v -0.78 a 4,4 0 0 0 -0.68,-2.53 2.65,2.65 0 0 0 -2.2,-0.86 7.4,7.4 0 0 0 -3.38,0.91 L 310,81 a 9,9 0 0 1 3.83,-0.91 3.82,3.82 0 0 1 2.89,1 4.42,4.42 0 0 1 1,3.14 v 7.83 z m -4.33,-0.76 a 3.75,3.75 0 0 0 4.06,-4.07 V 86.1 l -2.06,0.09 A 7.72,7.72 0 0 0 311,87 a 2.25,2.25 0 0 0 -1.06,2 2.21,2.21 0 0 0 0.68,1.72 2.79,2.79 0 0 0 1.9,0.61 z"
         id="path981" />
      <path
         class="cls-3"
         d="m 329.66,92.09 v -7.64 a 3.72,3.72 0 0 0 -0.75,-2.58 3,3 0 0 0 -2.32,-0.8 4,4 0 0 0 -3.09,1.06 5.05,5.05 0 0 0 -1,3.46 v 6.5 h -1.07 V 80.32 h 0.91 l 0.21,1.61 h 0.06 c 0.77,-1.22 2.13,-1.84 4.08,-1.84 q 4,0 4,4.3 v 7.7 z"
         id="path983" />
      <path
         class="cls-3"
         d="m 332.56,80.32 h 1.1 l 2.49,6.6 c 0.76,2 1.24,3.4 1.44,4.1 h 0.06 c 0.31,-0.93 0.8,-2.32 1.49,-4.16 l 2.49,-6.54 h 1.1 L 337.46,94 a 10.84,10.84 0 0 1 -1.07,2.25 3,3 0 0 1 -1,0.88 3.19,3.19 0 0 1 -1.41,0.29 4.51,4.51 0 0 1 -1.37,-0.23 v -0.93 a 4.89,4.89 0 0 0 1.35,0.18 1.86,1.86 0 0 0 1,-0.26 2.6,2.6 0 0 0 0.76,-0.81 10.22,10.22 0 0 0 0.79,-1.73 l 0.58,-1.54 z"
         id="path985" />
      <path
         class="cls-4"
         d="m 173.92,86 -12.8,-11.25 v 0 a 15,15 0 1 0 0,22.49 v 0 z m -33.17,0 A 10.45,10.45 0 1 1 151.2,96.44 10.45,10.45 0 0 1 140.75,86"
         id="path987" />
      <path
         class="cls-5"
         d="m 178.92,89 c 0,-2.34 2,-4 7.7,-4.8 v -0.52 a 1.92,1.92 0 0 0 -2.18,-2.14 6.18,6.18 0 0 0 -4.17,1.74 l -1.13,-1 a 7.82,7.82 0 0 1 5.5,-2.29 c 2.74,0 3.83,1.44 3.83,3.84 v 5.08 a 7.84,7.84 0 0 0 0.33,2.83 h -1.92 a 4.89,4.89 0 0 1 -0.26,-1.59 6.24,6.24 0 0 1 -4.45,1.77 c -2,0 -3.25,-1.05 -3.25,-2.9 m 7.7,-0.26 v -3.22 c -4.38,0.7 -5.84,1.77 -5.84,3.2 0,1.12 0.74,1.71 1.94,1.71 a 5.52,5.52 0 0 0 3.9,-1.68"
         id="path989" />
      <path
         class="cls-5"
         d="m 191,86 c 0,-4.21 2.7,-6 5.27,-6 a 4.58,4.58 0 0 1 4.52,3.23 l -1.59,0.65 a 3,3 0 0 0 -3,-2.29 c -1.66,0 -3.34,1.16 -3.34,4.41 0,2.83 1.36,4.42 3.3,4.42 1.46,0 2.35,-0.63 3.09,-2.31 l 1.55,0.61 c -0.8,1.92 -2.16,3.28 -4.65,3.28 -2.66,0 -5.12,-2 -5.12,-6"
         id="path991" />
      <path
         class="cls-5"
         d="m 202.52,86 c 0,-4.21 2.7,-6 5.28,-6 a 4.57,4.57 0 0 1 4.51,3.23 l -1.59,0.65 a 3,3 0 0 0 -3,-2.29 c -1.65,0 -3.33,1.16 -3.33,4.41 0,2.83 1.35,4.42 3.29,4.42 1.46,0 2.36,-0.63 3.1,-2.31 l 1.55,0.61 c -0.9,1.92 -2.23,3.27 -4.71,3.27 -2.67,0 -5.13,-2 -5.13,-6"
         id="path993" />
      <path
         class="cls-5"
         d="m 214,86 c 0,-4.19 2.8,-6 5.22,-6 2.72,0 4.8,1.92 4.8,6.08 v 0.4 h -8.14 c 0.06,2.59 1.57,4 3.47,4 a 3.92,3.92 0 0 0 3.47,-1.88 l 1.09,1 a 5.35,5.35 0 0 1 -4.68,2.4 c -2.73,0 -5.22,-2 -5.22,-6 m 8.23,-1 c -0.16,-2.05 -1.14,-3.44 -3,-3.44 -1.55,0 -3,1.07 -3.28,3.44 z"
         id="path995" />
      <path
         class="cls-5"
         d="m 225.66,90 1.13,-1.13 a 4.77,4.77 0 0 0 3.6,1.59 c 1.79,0 2.77,-0.63 2.77,-1.81 0,-1.18 -1,-1.59 -3,-2 -2.45,-0.59 -4.13,-1.25 -4.13,-3.47 0,-1.74 1.53,-3.14 4,-3.14 a 5.93,5.93 0 0 1 4.4,1.66 l -1,1.24 a 4.94,4.94 0 0 0 -3.33,-1.37 c -1.68,0 -2.34,0.74 -2.34,1.54 0,1.07 0.92,1.46 2.73,1.88 2.59,0.63 4.38,1.27 4.38,3.64 0,2.2 -2,3.38 -4.6,3.38 a 6.11,6.11 0 0 1 -4.71,-2"
         id="path997" />
      <path
         class="cls-5"
         d="m 236.61,90 1.13,-1.13 a 4.77,4.77 0 0 0 3.6,1.59 c 1.79,0 2.77,-0.63 2.77,-1.81 0,-1.18 -1,-1.59 -3,-2 C 238.7,86 237,85.36 237,83.14 237,81.4 238.53,80 241,80 a 6,6 0 0 1 4.41,1.66 l -1,1.24 a 4.94,4.94 0 0 0 -3.33,-1.37 c -1.68,0 -2.34,0.74 -2.34,1.54 0,1.07 0.92,1.46 2.73,1.88 2.6,0.63 4.38,1.27 4.38,3.64 0,2.2 -2,3.38 -4.6,3.38 a 6.11,6.11 0 0 1 -4.71,-2"
         id="path999" />
    </g>
  </g>
  <g
     id="layer3"
     transform="translate(518.53052,210.76158)" />
  <g
     id="layer2"
     style="display:inline;opacity:1"
     transform="translate(518.53052,210.76158)">
    <text
       xml:space="preserve"
       id="text867"
       style="font-style:normal;font-weight:normal;font-size:8.46667px;line-height:1.25;font-family:sans-serif;white-space:pre;shape-inside:url(#rect869);fill:#00c7ff;fill-opacity:1;stroke:none;"
       x="26.073866"
       y="0"
       transform="translate(-6.0123457,3.5714077)"><tspan
         x="-508.20964"
         y="-192.60468"><tspan
           style="font-style:normal;font-variant:normal;font-weight:normal;font-stretch:normal;font-size:8.46667px;font-family:FontAwesome;-inkscape-font-specification:FontAwesome;text-align:center;text-anchor:middle;fill:#00c7ff;fill-opacity:1">SCHEDULE</tspan></tspan></text>
    <path
       id="rect1375"
       style="fill:#fc4f4f;fill-opacity:1;stroke-width:0.213576"
       d="m -518.53049,-198.85533 h 48.63535 c 2.37184,0 4.28131,1.91261 4.28131,4.28835 v 4.65247 c 0,2.37575 -1.90947,4.28835 -4.28131,4.28835 h -48.63535 z" />
    <text
       xml:space="preserve"
       style="font-style:normal;font-weight:normal;font-size:7.05556px;line-height:1.25;font-family:sans-serif;fill:#979797;fill-opacity:1;stroke:none;stroke-width:0.264583"
       x="-514.19659"
       y="-189.65004"
       id="text1380"><tspan
         id="tspan1378"
         x="-514.19659"
         y="-189.65004"
         style="font-size:7.05556px;fill:#ffffff;fill-opacity:1;stroke-width:0.264583">UNLEASHED</tspan></text>
  </g>
  <style
     type="text/css"
     id="style909">
	.st0{fill:#00a3e0;}
</style>
</svg>
