<?xml version="1.0" encoding="UTF-8"?>
<svg width="570" height="400" version="1.1" viewBox="0 0 150.81 105.83" xmlns="http://www.w3.org/2000/svg"><defs><style>.cls-1{fill:#a54544;}.cls-2{fill:#fc4f4f;}.cls-3{fill:#bebcbd;}.cls-4{fill:#e31c41;}.cls-5{fill:#59595b;}</style></defs><g transform="translate(518.53 210.76)"><rect x="-518.53" y="-210.76" width="150.81" height="105.83" fill="#fff" fill-opacity=".99842" fill-rule="evenodd" stroke-width=".066416"/></g><g transform="translate(518.53 210.76)"><g transform="matrix(.69603 0 0 .76097 -477.89 -195.87)" fill="#00c7ff"><g fill="#00c7ff" fill-rule="evenodd"><path d="m76.495 73.915h-46.754v5.0071c-0.90823 5.1327-5.4097 9.0322-10.826 9.0322-6.0714 0-10.993-4.8996-10.993-10.944 0-3.7296 1.8741-7.0234 4.736-8.9991l-3.1524-4.4831c-4.2794 2.9654-7.0802 7.8982-7.0802 13.482 0 9.066 7.3828 16.415 16.49 16.415 8.1672 0 14.948-5.9107 16.26-13.67h41.097c0.95181 1.63 2.7251 2.7259 4.7554 2.7259 3.0357 0 5.4966-2.4498 5.4966-5.4718s-2.4609-5.4718-5.4966-5.4718c-1.8815 0-3.5422 0.94108-4.5331 2.3762z"/><path d="m13.997 74.733c0.09497-0.23479 0.20736-0.46581 0.33762-0.69142 1.0099-1.7492 2.8383-2.731 4.7212-2.7404l20.612-35.702c-6.0738-5.0121-7.8193-13.824-3.7483-20.875 4.5375-7.8591 14.583-10.554 22.436-6.02 4.8218 2.7839 7.6966 7.6456 8.1476 12.803l-5.4542 0.47818c-0.29994-3.4393-2.2166-6.6816-5.4319-8.538-5.2358-3.0229-11.933-1.2261-14.958 4.0133-2.9624 5.1311-1.3048 11.661 3.6827 14.768l3.0141 1.7402-23.346 40.437c0.66342 1.3856 0.73496 3.0294 0.10257 4.5125-0.77163 2.0887-2.7817 3.5779-5.1398 3.5779-3.025 0-5.4772-2.4506-5.4772-5.4735 0-0.81744 0.17932-1.593 0.50079-2.2896z"/><path d="m49.663 28.354 23.112 40.032 2.7525-1.5891 0.04668 0.08084c0.02272-0.01333 0.0455-0.02659 0.06835-0.03978 5.2395-3.025 11.915-1.2723 14.909 3.9148 2.9948 5.1871 1.1751 11.844-4.0644 14.869-3.23 1.8649-7.0057 1.914-10.128 0.46204l-2.3314 4.937c4.6798 2.1677 10.333 2.09 15.171-0.70304 7.8592-4.5375 10.589-14.523 6.0966-22.304-4.0559-7.0251-12.612-9.8505-20.021-6.9932l-20.508-35.521c0.88338-1.6109 0.93308-3.6201-0.04564-5.3153-1.4974-2.5935-4.835-3.4699-7.4547-1.9574-2.6197 1.5125-3.5296 4.8411-2.0322 7.4347 0.95166 1.6483 2.6466 2.603 4.4282 2.6917z"/></g></g></g><g transform="translate(518.53 210.76)"><path d="m-518.53-198.86h43.338c2.1135 0 3.815 1.9126 3.815 4.2884v4.6525c0 2.3758-1.7015 4.2884-3.815 4.2884h-43.338z" fill="#00c7ff" stroke-width=".20161"/><text x="-514.19659" y="-189.65004" fill="#979797" font-family="sans-serif" font-size="7.0556px" stroke-width=".26458" style="line-height:1.25" xml:space="preserve"><tspan x="-514.19659" y="-189.65004" fill="#ffffff" font-size="7.0556px" stroke-width=".26458">WEBHOOK</tspan></text></g><style type="text/css">.st0{fill:#00a3e0;}</style></svg>
