<?xml version="1.0" encoding="UTF-8"?>
<svg width="570" height="400" version="1.1" viewBox="0 0 150.81 105.83" xmlns="http://www.w3.org/2000/svg"><defs><style>.cls-1{fill:#a54544;}.cls-2{fill:#fc4f4f;}.cls-3{fill:#bebcbd;}.cls-4{fill:#e31c41;}.cls-5{fill:#59595b;}</style></defs><g transform="translate(518.53 210.76)"><rect x="-518.53" y="-210.76" width="150.81" height="105.83" fill="#ffffff" fill-opacity=".99842" fill-rule="evenodd" stroke-width=".066416"/><g transform="matrix(.91963 0 0 .91963 -495.08 -168.32)"><path d="m34.709 0h-31.157c-1.9718 0-3.5679 1.6118-3.5523 3.5679v11.893c0 1.9717 1.5962 3.5679 3.5679 3.5679h14.757l6.7447 3.7557-1.5336-3.7557h11.173c1.9718 0 3.5679-1.5962 3.5679-3.5679v-11.893c0-1.9718-1.5961-3.5679-3.5679-3.5679zm-31.814 2.7542c-0.43817 0.0313-0.7668 0.18779-0.98588 0.48511-0.21908 0.28168-0.29732 0.6416-0.25038 1.0485 0.92328 5.8683 1.784 9.8274 2.582 11.877 0.31298 0.7511 0.6729 1.1111 1.0954 1.0798 0.65724-0.047 1.4397-0.9546 2.363-2.7229 0.48511-1.0016 1.2363-2.5038 2.2534-4.5069 0.84499 2.9576 2.003 5.1798 3.4584 6.6664 0.4069 0.4225 0.8294 0.6103 1.2362 0.579 0.36-0.0313 0.6416-0.2191 0.8294-0.5634 0.1565-0.2973 0.2191-0.6416 0.1878-1.0328-0.0939-1.424 0.047-3.4114 0.4382-5.9622 0.4068-2.629 0.9076-4.5225 1.5179-5.6492 0.1252-0.23473 0.1721-0.46947 0.1565-0.75114-0.0313-0.35993-0.1878-0.65725-0.4851-0.89198s-0.626-0.34427-0.9859-0.31298c-0.4538 0.0313-0.7981 0.25038-1.0328 0.68855-0.9702 1.7683-1.6588 4.632-2.0656 8.6068-0.5947-1.5023-1.0955-3.2706-1.4867-5.3519-0.1721-0.92327-0.5946-1.3614-1.2832-1.3145-0.46945 0.03129-0.86066 0.34427-1.1736 0.93892l-3.4271 6.5256c-0.56336-2.2691-1.0954-5.0389-1.5805-8.3095-0.10954-0.81373-0.56336-1.1893-1.3614-1.1267zm30.155 1.1268c1.1111 0.23474 1.9405 0.82939 2.5038 1.8153 0.5008 0.84504 0.7511 1.8622 0.7511 3.0828 0 1.6118-0.4068 3.0828-1.2206 4.4286-0.9389 1.5649-2.1595 2.3473-3.6774 2.3473-0.266 0-0.5477-0.0313-0.8451-0.0939-1.111-0.2347-1.9404-0.8293-2.5038-1.8152-0.5007-0.8607-0.7511-1.8935-0.7511-3.0985 0-1.6118 0.4069-3.0828 1.2206-4.4129 0.9546-1.5649 2.1752-2.3473 3.6775-2.3473 0.266 0 0.5477 0.0313 0.845 0.09389zm-0.6572 8.466c0.579-0.5164 0.9702-1.2832 1.1893-2.316 0.0626-0.35991 0.1095-0.75113 0.1095-1.158 0-0.45381-0.0939-0.93892-0.2817-1.424-0.2347-0.6103-0.5477-0.93892-0.9233-1.0172-0.5633-0.10954-1.111 0.20344-1.6274 0.97023-0.4225 0.59465-0.6886 1.2206-0.8294 1.8622-0.0783 0.35993-0.1096 0.75118-0.1096 1.1424 0 0.4538 0.0939 0.9389 0.2817 1.424 0.2348 0.6103 0.5477 0.9389 0.9233 1.0172 0.3912 0.0782 0.8137-0.0939 1.2676-0.5008zm-6.6508-6.6507c-0.5634-0.98587-1.4084-1.5805-2.5038-1.8153-0.2974-0.06259-0.579-0.09389-0.8451-0.09389-1.5022 0-2.7228 0.78244-3.6774 2.3473-0.8138 1.3301-1.2206 2.8011-1.2206 4.4129 0 1.205 0.2504 2.2378 0.7511 3.0985 0.5634 0.9859 1.3928 1.5805 2.5038 1.8152 0.2973 0.0626 0.579 0.0939 0.8451 0.0939 1.5179 0 2.7385-0.7824 3.6774-2.3473 0.8138-1.3458 1.2206-2.8168 1.2206-4.4286 0-1.2206-0.2504-2.2378-0.7511-3.0828zm-1.9718 4.3347c-0.219 1.0328-0.6103 1.7996-1.1893 2.316-0.4538 0.4069-0.8763 0.579-1.2675 0.5008-0.3756-0.0783-0.6886-0.4069-0.9233-1.0172-0.1878-0.4851-0.2817-0.9702-0.2817-1.424 0-0.3912 0.0313-0.78245 0.1096-1.1424 0.1408-0.6416 0.4068-1.2676 0.8293-1.8622 0.5165-0.76679 1.0642-1.0798 1.6275-0.97023 0.3756 0.07825 0.6886 0.40687 0.9233 1.0172 0.1878 0.48512 0.2817 0.97023 0.2817 1.424 0 0.40687-0.0313 0.79809-0.1096 1.158z" clip-rule="evenodd" fill="#7f54b3" fill-rule="evenodd"/><path d="m42.236 5.5553c-1.0485 1.0328-1.5649 2.3473-1.5649 3.9435 0 1.7057 0.5164 3.0984 1.5493 4.1469 1.0328 1.0485 2.3786 1.5805 4.053 1.5805 0.4851 0 1.0328-0.0782 1.6275-0.2504v-2.5351c-0.5477 0.1565-1.0172 0.2348-1.4241 0.2348-0.8294 0-1.4866-0.2817-1.9874-0.8294-0.5007-0.5634-0.7511-1.3145-0.7511-2.2691 0-0.89198 0.2504-1.6275 0.7355-2.1908 0.5007-0.579 1.111-0.86068 1.8622-0.86068 0.4851 0 1.0015 0.07824 1.5649 0.23473v-2.5351c-0.5164-0.14084-1.0954-0.20344-1.7058-0.20344-1.5961-0.01565-2.9106 0.50077-3.9591 1.5336zm10.86-1.5492c-1.4397 0-2.5664 0.48512-3.3802 1.4397-0.8137 0.95458-1.2049 2.3004-1.2049 4.0217 0 1.8622 0.4068 3.2862 1.2049 4.2721s1.9718 1.4866 3.5054 1.4866c1.4866 0 2.6289-0.5007 3.427-1.4866s1.205-2.3786 1.205-4.1626c0-1.784-0.4069-3.161-1.2206-4.1313-0.8294-0.95457-2.0031-1.4397-3.5366-1.4397zm1.2362 8.1374c-0.2817 0.4382-0.7042 0.6573-1.2362 0.6573-0.5008 0-0.8764-0.2191-1.1424-0.6573s-0.3912-1.3145-0.3912-2.6446c0-2.05 0.5164-3.0672 1.5649-3.0672 1.0954 0 1.6587 1.0328 1.6587 3.1141-0.0156 1.2832-0.1721 2.1595-0.4538 2.5977zm11.252-7.84-0.5634 2.3943c-0.1408 0.6103-0.2816 1.2362-0.4068 1.8778l-0.313 1.6588c-0.2973-1.6588-0.7042-3.6306-1.2206-5.9309h-3.6305l-1.3615 10.657h2.7229l0.7355-7.3393 1.8622 7.3393h1.9405l1.7839-7.3236 0.7668 7.3236h2.8481l-1.4397-10.657zm13.035 0-0.5633 2.3943c-0.1409 0.6103-0.2817 1.2362-0.4069 1.8778l-0.313 1.6588c-0.2973-1.6588-0.7042-3.6306-1.2206-5.9309h-3.6305l-1.3614 10.657h2.7228l0.7355-7.3393 1.8622 7.3393h1.9405l1.7683-7.3236 0.7668 7.3236h2.8481l-1.4397-10.657zm8.8572 6.4473h2.5508v-2.2065h-2.5508v-1.9561h2.942v-2.2691h-5.8213v10.657h5.837v-2.269h-2.9577zm11.064-1.6901c0.2974-0.48511 0.4538-0.98587 0.4538-1.5023 0-1.0015-0.3912-1.7996-1.1736-2.3786-0.7825-0.579-1.8622-0.87633-3.208-0.87633h-3.3489v10.657h2.8794v-4.8511h0.047l2.3316 4.8511h3.0359l-2.3004-4.8042c0.5477-0.25036 0.9859-0.61029 1.2832-1.0954zm-4.4129-0.17214v-2.5351c0.6885 0.01565 1.1736 0.12519 1.471 0.34428 0.2973 0.21908 0.4381 0.56335 0.4381 1.0641 0 0.73549-0.6416 1.1111-1.9091 1.1267zm6.5564-3.3332c-1.0481 1.0328-1.5645 2.3473-1.5645 3.9435 0 1.7057 0.5164 3.0984 1.5495 4.1469 1.033 1.0485 2.378 1.5805 4.053 1.5805 0.485 0 1.033-0.0782 1.627-0.2504v-2.5351c-0.547 0.1565-1.017 0.2348-1.424 0.2348-0.829 0-1.486-0.2817-1.987-0.8294-0.501-0.5634-0.751-1.3145-0.751-2.2691 0-0.89198 0.25-1.6275 0.735-2.1908 0.501-0.579 1.111-0.86068 1.862-0.86068 0.485 0 1.002 0.07824 1.565 0.23473v-2.5351c-0.516-0.14084-1.095-0.20344-1.705-0.20344-1.581-0.01565-2.911 0.50077-3.96 1.5336zm9.343 7.1202v-1.9405h2.55v-2.2065h-2.55v-1.9561h2.957v-2.2691h-5.821v10.657h5.837v-2.2691h-2.973z" fill="#000000"/></g></g><g transform="translate(518.53 210.76)"><path d="m-518.53-198.86h62.78c3.0616 0 5.5264 1.9126 5.5264 4.2884v4.6525c0 2.3758-2.4648 4.2884-5.5264 4.2884h-62.78z" fill="#7f54b3" stroke-width=".24265"/><text x="-514.19659" y="-189.65004" fill="#979797" font-family="sans-serif" font-size="7.0556px" stroke-width=".26458" style="line-height:1.25" xml:space="preserve"><tspan x="-514.19659" y="-189.65004" fill="#ffffff" font-size="7.0556px" stroke-width=".26458">WOOCOMMERCE</tspan></text></g><style type="text/css">.st0{fill:#00a3e0;}</style></svg>
