<?xml version="1.0" encoding="UTF-8" standalone="no"?>
<svg
   data-name="Layer 1"
   width="786.81995"
   height="572.25773"
   viewBox="0 0 786.81995 572.25773"
   version="1.1"
   id="svg96"
   sodipodi:docname="hero.svg"
   inkscape:version="1.3.2 (091e20e, 2023-11-25)"
   xmlns:inkscape="http://www.inkscape.org/namespaces/inkscape"
   xmlns:sodipodi="http://sodipodi.sourceforge.net/DTD/sodipodi-0.dtd"
   xmlns="http://www.w3.org/2000/svg"
   xmlns:svg="http://www.w3.org/2000/svg">
  <defs
     id="defs96" />
  <sodipodi:namedview
     id="namedview96"
     pagecolor="#ffffff"
     bordercolor="#000000"
     borderopacity="0.25"
     inkscape:showpageshadow="2"
     inkscape:pageopacity="0.0"
     inkscape:pagecheckerboard="0"
     inkscape:deskcolor="#d1d1d1"
     inkscape:zoom="0.94353356"
     inkscape:cx="675.12172"
     inkscape:cy="370.41608"
     inkscape:window-width="1678"
     inkscape:window-height="1011"
     inkscape:window-x="50"
     inkscape:window-y="32"
     inkscape:window-maximized="1"
     inkscape:current-layer="svg96" />
  <circle
     cx="458.32136"
     cy="74.18162"
     r="26.70075"
     fill="#f2f2f2"
     id="circle1" />
  <path
     d="M872.03753,661.02307c39.6877-30.22889,58.64352-81.02546,46.77635-129.48234q-.44231-1.806-.93367-3.6038c-7.86742-28.76343-27.33167-56.10058-55.7-65.29129-23.81971-7.71694-49.81962-1.78274-74.66936-4.85149-48.78136-6.02417-86.60057-45.494-113.21115-86.81933-26.61064-41.32546-47.06182-87.58331-82.42157-121.72413-58.28479-56.27536-153.36192-68.39149-225.62671-31.76044C293.98673,254.12142,247.95487,335.39062,249.918,416.38554c1.96322,80.995,50.04632,158.43176,119.87492,199.517,25.65222,15.093,55.32138,25.78522,84.84826,22.04377,25.62011-3.24641,48.89908-17.01264,74.39861-21.09959,40.09115-6.42568,79.92687,11.70084,114.60268,32.82375,34.67571,21.12288,68.17007,46.15988,107.57436,55.95242C789.47831,715.13139,836.88051,687.80109,872.03753,661.02307Z"
     transform="translate(-206.59003 -163.87113)"
     fill="#f2f2f2"
     id="path1" />
  <path
     d="M815.016,219.19108c-.87006-.58-1.75-1.13-2.62006-1.69a380.24008,380.24008,0,0,0-80.31-38.93l-6.54,90.22h-41.46v-103.39c-2.61-.54-5.24-1.05-7.87-1.53v104.92H626.94587A102.26992,102.26992,0,0,1,524.67595,166.5212v-.0001c-2.64.57-5.26,1.18-7.88,1.83v100.44h-40.13l-6.23-86.03a380.8581,380.8581,0,0,0-81.94,43.53c-.44.3-.88.61-1.31.91-2.21,1.55-4.39,3.13-6.56,4.73v344.19h118.27l-2.09-28.95-11.5-158.95h231.59l-11.5,158.95-2.09,28.95h116.96v-353.45Q817.65591,220.90114,815.016,219.19108Zm-298.22,142.78h-33.39l-6.17-85.3h39.56Zm159.42,0h-56.08v-1.69a6.17975,6.17975,0,0,0-6.19-6.18h-24.38a6.17757,6.17757,0,0,0-6.18,6.18v1.69h-58.71v-85.3h151.54Zm7.87,0v-85.3h40.89l-6.17,85.3Z"
     transform="translate(-206.59003 -163.87113)"
     fill="#3f3d56"
     id="path2" />
  <path
     d="M206.59,598.16193a289.0029,289.0029,0,0,0,28.12,28.95l730.58,1a289.0029,289.0029,0,0,0,28.12-28.95Z"
     transform="translate(-206.59003 -163.87113)"
     fill="#3f3d56"
     id="path3" />
  <path
     d="M702.01993,505.46245v85.704a4.12233,4.12233,0,0,0,4.11906,4.11907H833.14348a4.12232,4.12232,0,0,0,4.11907-4.11907v-85.704a4.12433,4.12433,0,0,0-4.11907-4.11452H706.139A4.12434,4.12434,0,0,0,702.01993,505.46245Z"
     transform="translate(-206.59003 -163.87113)"
     fill="#3f3d56"
     id="path4" />
  <path
     d="M704.99939,506.52881V590.1092a2.20523,2.20523,0,0,0,2.20141,2.20141H832.08626a2.20522,2.20522,0,0,0,2.20141-2.20141V506.52881a2.20621,2.20621,0,0,0-2.20141-2.206H707.2008A2.20623,2.20623,0,0,0,704.99939,506.52881Z"
     transform="translate(-206.59003 -163.87113)"
     fill="#ff6600"
     id="path5" />
  <path
     d="M699.36376,607.881a2.46985,2.46985,0,0,0,1.94346.92984H837.29917a2.5024,2.5024,0,0,0,2.44606-3.0157l-2.111-10.02722a2.50694,2.50694,0,0,0-1.55811-1.81784,2.42467,2.42467,0,0,0-.888-.1675H703.40985a2.42446,2.42446,0,0,0-.888.1675,2.50671,2.50671,0,0,0-1.55811,1.81784l-2.111,10.02722A2.5005,2.5005,0,0,0,699.36376,607.881Z"
     transform="translate(-206.59003 -163.87113)"
     fill="#2f2e41"
     id="path6" />
  <rect
     x="830.03379"
     y="595.58843"
     width="4.18849"
     height="2.51309"
     rx="0.48819"
     transform="translate(1457.66604 1029.81882) rotate(-180)"
     fill="#3f3d56"
     id="rect6" />
  <rect
     x="821.65681"
     y="595.58843"
     width="4.18849"
     height="2.51309"
     rx="0.48819"
     transform="translate(1440.91208 1029.81882) rotate(-180)"
     fill="#3f3d56"
     id="rect7" />
  <rect
     x="813.27982"
     y="595.58843"
     width="4.18849"
     height="2.51309"
     rx="0.48819"
     transform="translate(1424.15811 1029.81882) rotate(-180)"
     fill="#3f3d56"
     id="rect8" />
  <rect
     x="804.90284"
     y="595.58843"
     width="4.18849"
     height="2.51309"
     rx="0.48819"
     transform="translate(1407.40415 1029.81882) rotate(-180)"
     fill="#3f3d56"
     id="rect9" />
  <rect
     x="796.52586"
     y="595.58843"
     width="4.18849"
     height="2.51309"
     rx="0.48819"
     transform="translate(1390.65018 1029.81882) rotate(-180)"
     fill="#3f3d56"
     id="rect10" />
  <rect
     x="788.14888"
     y="595.58843"
     width="4.18849"
     height="2.51309"
     rx="0.48819"
     transform="translate(1373.89622 1029.81882) rotate(-180)"
     fill="#3f3d56"
     id="rect11" />
  <rect
     x="779.7719"
     y="595.58843"
     width="4.18849"
     height="2.51309"
     rx="0.48819"
     transform="translate(1357.14226 1029.81882) rotate(-180)"
     fill="#3f3d56"
     id="rect12" />
  <rect
     x="771.39491"
     y="595.58843"
     width="4.18849"
     height="2.51309"
     rx="0.48819"
     transform="translate(1340.38829 1029.81882) rotate(-180)"
     fill="#3f3d56"
     id="rect13" />
  <rect
     x="763.01793"
     y="595.58843"
     width="4.18849"
     height="2.51309"
     rx="0.48819"
     transform="translate(1323.63433 1029.81882) rotate(-180)"
     fill="#3f3d56"
     id="rect14" />
  <rect
     x="754.64095"
     y="595.58843"
     width="4.18849"
     height="2.51309"
     rx="0.48819"
     transform="translate(1306.88037 1029.81882) rotate(-180)"
     fill="#3f3d56"
     id="rect15" />
  <rect
     x="746.26397"
     y="595.58843"
     width="4.18849"
     height="2.51309"
     rx="0.48819"
     transform="translate(1290.1264 1029.81882) rotate(-180)"
     fill="#3f3d56"
     id="rect16" />
  <rect
     x="737.88699"
     y="595.58843"
     width="4.18849"
     height="2.51309"
     rx="0.48819"
     transform="translate(1273.37244 1029.81882) rotate(-180)"
     fill="#3f3d56"
     id="rect17" />
  <rect
     x="729.51001"
     y="595.58843"
     width="4.18849"
     height="2.51309"
     rx="0.48819"
     transform="translate(1256.61847 1029.81882) rotate(-180)"
     fill="#3f3d56"
     id="rect18" />
  <rect
     x="721.13302"
     y="595.58843"
     width="4.18849"
     height="2.51309"
     rx="0.48819"
     transform="translate(1239.86451 1029.81882) rotate(-180)"
     fill="#3f3d56"
     id="rect19" />
  <rect
     x="712.75604"
     y="595.58843"
     width="4.18849"
     height="2.51309"
     rx="0.48819"
     transform="translate(1223.11055 1029.81882) rotate(-180)"
     fill="#3f3d56"
     id="rect20" />
  <rect
     x="704.37906"
     y="595.58843"
     width="4.18849"
     height="2.51309"
     rx="0.48819"
     transform="translate(1206.35658 1029.81882) rotate(-180)"
     fill="#3f3d56"
     id="rect21" />
  <rect
     x="830.13277"
     y="599.77692"
     width="4.18849"
     height="2.51309"
     rx="0.48819"
     transform="translate(1457.86401 1038.1958) rotate(-180)"
     fill="#3f3d56"
     id="rect22" />
  <rect
     x="821.75579"
     y="599.77692"
     width="4.18849"
     height="2.51309"
     rx="0.48819"
     transform="translate(1441.11005 1038.1958) rotate(-180)"
     fill="#3f3d56"
     id="rect23" />
  <rect
     x="813.37881"
     y="599.77692"
     width="4.18849"
     height="2.51309"
     rx="0.48819"
     transform="translate(1424.35608 1038.1958) rotate(-180)"
     fill="#3f3d56"
     id="rect24" />
  <rect
     x="805.00183"
     y="599.77692"
     width="4.18849"
     height="2.51309"
     rx="0.48819"
     transform="translate(1407.60212 1038.1958) rotate(-180)"
     fill="#3f3d56"
     id="rect25" />
  <rect
     x="796.62485"
     y="599.77692"
     width="4.18849"
     height="2.51309"
     rx="0.48819"
     transform="translate(1390.84816 1038.1958) rotate(-180)"
     fill="#3f3d56"
     id="rect26" />
  <rect
     x="788.24786"
     y="599.77692"
     width="4.18849"
     height="2.51309"
     rx="0.48819"
     transform="translate(1374.09419 1038.1958) rotate(-180)"
     fill="#3f3d56"
     id="rect27" />
  <rect
     x="779.87088"
     y="599.77692"
     width="4.18849"
     height="2.51309"
     rx="0.48819"
     transform="translate(1357.34023 1038.1958) rotate(-180)"
     fill="#3f3d56"
     id="rect28" />
  <rect
     x="771.4939"
     y="599.77692"
     width="4.18849"
     height="2.51309"
     rx="0.48819"
     transform="translate(1340.58627 1038.1958) rotate(-180)"
     fill="#3f3d56"
     id="rect29" />
  <rect
     x="763.11692"
     y="599.77692"
     width="4.18849"
     height="2.51309"
     rx="0.48819"
     transform="translate(1323.8323 1038.1958) rotate(-180)"
     fill="#3f3d56"
     id="rect30" />
  <rect
     x="754.73994"
     y="599.77692"
     width="4.18849"
     height="2.51309"
     rx="0.48819"
     transform="translate(1307.07834 1038.1958) rotate(-180)"
     fill="#3f3d56"
     id="rect31" />
  <rect
     x="746.36295"
     y="599.77692"
     width="4.18849"
     height="2.51309"
     rx="0.48819"
     transform="translate(1290.32437 1038.1958) rotate(-180)"
     fill="#3f3d56"
     id="rect32" />
  <rect
     x="737.98597"
     y="599.77692"
     width="4.18849"
     height="2.51309"
     rx="0.48819"
     transform="translate(1273.57041 1038.1958) rotate(-180)"
     fill="#3f3d56"
     id="rect33" />
  <rect
     x="729.60899"
     y="599.77692"
     width="4.18849"
     height="2.51309"
     rx="0.48819"
     transform="translate(1256.81645 1038.1958) rotate(-180)"
     fill="#3f3d56"
     id="rect34" />
  <rect
     x="721.23201"
     y="599.77692"
     width="4.18849"
     height="2.51309"
     rx="0.48819"
     transform="translate(1240.06248 1038.1958) rotate(-180)"
     fill="#3f3d56"
     id="rect35" />
  <rect
     x="712.85503"
     y="599.77692"
     width="4.18849"
     height="2.51309"
     rx="0.48819"
     transform="translate(1223.30852 1038.1958) rotate(-180)"
     fill="#3f3d56"
     id="rect36" />
  <rect
     x="704.47805"
     y="599.77692"
     width="4.18849"
     height="2.51309"
     rx="0.48819"
     transform="translate(1206.55456 1038.1958) rotate(-180)"
     fill="#3f3d56"
     id="rect37" />
  <rect
     x="760.60382"
     y="604.80311"
     width="33.50793"
     height="2.51309"
     rx="0.48819"
     transform="translate(1348.12555 1048.24818) rotate(-180)"
     fill="#3f3d56"
     id="rect38" />
  <rect
     x="515.63106"
     y="358.73707"
     width="5.96585"
     height="3.12216"
     rx="1.56108"
     fill="#fff"
     id="rect39" />
  <rect
     x="548.15407"
     y="358.73707"
     width="5.96585"
     height="3.12216"
     rx="1.56108"
     fill="#fff"
     id="rect40" />
  <rect
     x="557.36892"
     y="358.73707"
     width="5.96585"
     height="3.12216"
     rx="1.56108"
     fill="#fff"
     id="rect41" />
  <rect
     x="524.47742"
     y="358.4768"
     width="20.79613"
     height="3.12216"
     rx="1.56108"
     fill="#fff"
     id="rect42" />
  <rect
     x="567.84144"
     y="358.4768"
     width="20.79613"
     height="3.12216"
     rx="1.56108"
     fill="#fff"
     id="rect43" />
  <rect
     x="524.30386"
     y="365.78373"
     width="5.96585"
     height="3.12216"
     rx="1.56108"
     fill="#fff"
     id="rect44" />
  <rect
     x="556.82687"
     y="365.78373"
     width="5.96585"
     height="3.12216"
     rx="1.56108"
     fill="#fff"
     id="rect45" />
  <rect
     x="566.04172"
     y="365.78373"
     width="5.96585"
     height="3.12216"
     rx="1.56108"
     fill="#fff"
     id="rect46" />
  <rect
     x="533.15023"
     y="365.52345"
     width="20.79613"
     height="3.12216"
     rx="1.56108"
     fill="#fff"
     id="rect47" />
  <rect
     x="576.51424"
     y="365.52345"
     width="20.79613"
     height="3.12216"
     rx="1.56108"
     fill="#fff"
     id="rect48" />
  <rect
     x="532.97666"
     y="372.83038"
     width="5.96585"
     height="3.12216"
     rx="1.56108"
     fill="#fff"
     id="rect49" />
  <rect
     x="565.49967"
     y="372.83038"
     width="5.96585"
     height="3.12216"
     rx="1.56108"
     fill="#fff"
     id="rect50" />
  <rect
     x="574.71453"
     y="372.83038"
     width="5.96585"
     height="3.12216"
     rx="1.56108"
     fill="#fff"
     id="rect51" />
  <rect
     x="541.82303"
     y="372.57011"
     width="20.79613"
     height="3.12216"
     rx="1.56108"
     fill="#fff"
     id="rect52" />
  <rect
     x="585.18704"
     y="372.57011"
     width="20.79613"
     height="3.12216"
     rx="1.56108"
     fill="#fff"
     id="rect53" />
  <rect
     x="541.64947"
     y="379.87703"
     width="5.96585"
     height="3.12216"
     rx="1.56108"
     fill="#fff"
     id="rect54" />
  <rect
     x="574.17248"
     y="379.87703"
     width="5.96585"
     height="3.12216"
     rx="1.56108"
     fill="#fff"
     id="rect55" />
  <rect
     x="583.38733"
     y="379.87703"
     width="5.96585"
     height="3.12216"
     rx="1.56108"
     fill="#fff"
     id="rect56" />
  <rect
     x="550.49583"
     y="379.61676"
     width="20.79613"
     height="3.12216"
     rx="1.56108"
     fill="#fff"
     id="rect57" />
  <rect
     x="548.15407"
     y="407.89751"
     width="5.96585"
     height="3.12216"
     rx="1.56108"
     fill="#fff"
     id="rect58" />
  <rect
     x="557.36892"
     y="407.89751"
     width="5.96585"
     height="3.12216"
     rx="1.56108"
     fill="#fff"
     id="rect59" />
  <rect
     x="567.84144"
     y="408.15779"
     width="20.79613"
     height="3.12216"
     rx="1.56108"
     fill="#fff"
     id="rect60" />
  <rect
     x="515.63106"
     y="407.89751"
     width="5.96585"
     height="3.12216"
     rx="1.56108"
     fill="#fff"
     id="rect61" />
  <rect
     x="524.47742"
     y="408.15779"
     width="20.79613"
     height="3.12216"
     rx="1.56108"
     fill="#fff"
     id="rect62" />
  <rect
     x="524.30386"
     y="400.85086"
     width="5.96585"
     height="3.12216"
     rx="1.56108"
     fill="#fff"
     id="rect63" />
  <rect
     x="556.82687"
     y="400.85086"
     width="5.96585"
     height="3.12216"
     rx="1.56108"
     fill="#fff"
     id="rect64" />
  <rect
     x="566.04172"
     y="400.85086"
     width="5.96585"
     height="3.12216"
     rx="1.56108"
     fill="#fff"
     id="rect65" />
  <rect
     x="533.15023"
     y="401.11113"
     width="20.79613"
     height="3.12216"
     rx="1.56108"
     fill="#fff"
     id="rect66" />
  <rect
     x="532.97666"
     y="393.80421"
     width="5.96585"
     height="3.12216"
     rx="1.56108"
     fill="#fff"
     id="rect67" />
  <rect
     x="565.49967"
     y="393.80421"
     width="5.96585"
     height="3.12216"
     rx="1.56108"
     fill="#fff"
     id="rect68" />
  <rect
     x="574.71453"
     y="393.80421"
     width="5.96585"
     height="3.12216"
     rx="1.56108"
     fill="#fff"
     id="rect69" />
  <rect
     x="541.82303"
     y="394.06448"
     width="20.79613"
     height="3.12216"
     rx="1.56108"
     fill="#fff"
     id="rect70" />
  <rect
     x="541.64947"
     y="386.75755"
     width="5.96585"
     height="3.12216"
     rx="1.56108"
     fill="#fff"
     id="rect71" />
  <rect
     x="574.17248"
     y="386.75755"
     width="5.96585"
     height="3.12216"
     rx="1.56108"
     fill="#fff"
     id="rect72" />
  <rect
     x="583.38733"
     y="386.75755"
     width="5.96585"
     height="3.12216"
     rx="1.56108"
     fill="#fff"
     id="rect73" />
  <rect
     x="550.49583"
     y="387.01783"
     width="20.79613"
     height="3.12216"
     rx="1.56108"
     fill="#fff"
     id="rect74" />
  <path
     d="M711.50727,654.35273l-13.34954-21.10162,41.902-33.40283,17.29534-19.16107a19.16138,19.16138,0,0,1,32.418,6.8279h0a19.16136,19.16136,0,0,1-11.57015,23.991l-27.3488,10.07535Z"
     transform="translate(-206.59003 -163.87113)"
     fill="#ffb6b6"
     id="path74" />
  <path
     d="M398.28,501.35193v102.56h71.85v-102.56a3.448,3.448,0,0,0-2.43-3.3,3.1749,3.1749,0,0,0-1.03-.16H401.75A3.46328,3.46328,0,0,0,398.28,501.35193Zm28.04,35.24a7.67033,7.67033,0,0,1,15.34,0v11.9a7.6701,7.6701,0,0,1-15.34,0Z"
     transform="translate(-206.59003 -163.87113)"
     fill="#2f2e41"
     id="path75" />
  <path
     d="M398.06006,600.632v9.89a1.94622,1.94622,0,0,0,1.93,1.94h68.43a1.93972,1.93972,0,0,0,1.93-1.94v-9.89Z"
     transform="translate(-206.59003 -163.87113)"
     fill="#3f3d56"
     id="path76" />
  <path
     d="M285.25,346.832V534.09192a9.00714,9.00714,0,0,0,9,9h277.5a9.0071,9.0071,0,0,0,9-9V346.832a9.01147,9.01147,0,0,0-9-8.99H294.25A9.01151,9.01151,0,0,0,285.25,346.832Z"
     transform="translate(-206.59003 -163.87113)"
     fill="#3f3d56"
     id="path77" />
  <path
     d="M291.76,349.16193v182.62a4.81833,4.81833,0,0,0,4.81,4.81H569.44a4.81829,4.81829,0,0,0,4.81-4.81v-182.62a4.82047,4.82047,0,0,0-4.81-4.82H296.57A4.82051,4.82051,0,0,0,291.76,349.16193Z"
     transform="translate(-206.59003 -163.87113)"
     fill="#fff"
     id="path78" />
  <path
     d="M342.4,611.79193a2.9484,2.9484,0,0,0,2.32,1.11h162.34a2.98725,2.98725,0,0,0,2.92-3.6l-2.52-11.97a2.99264,2.99264,0,0,0-1.86-2.17,2.89454,2.89454,0,0,0-1.06-.19995H347.23a2.8943,2.8943,0,0,0-1.06.19995,2.99239,2.99239,0,0,0-1.86,2.17l-2.52,11.97A2.985,2.985,0,0,0,342.4,611.79193Z"
     transform="translate(-206.59003 -163.87113)"
     fill="#2f2e41"
     id="path79" />
  <path
     d="M560.58451,369.49866H305.26115a1.0156,1.0156,0,0,1,0-2.0307H560.58451a1.0156,1.0156,0,0,1,0,2.0307Z"
     transform="translate(-206.59003 -163.87113)"
     fill="#3f3d56"
     id="path80" />
  <ellipse
     cx="116.05131"
     cy="192.32963"
     rx="5.95043"
     ry="6.08304"
     fill="#3f3d56"
     id="ellipse80" />
  <ellipse
     cx="136.60733"
     cy="192.32963"
     rx="5.95043"
     ry="6.08304"
     fill="#3f3d56"
     id="ellipse81" />
  <ellipse
     cx="157.16336"
     cy="192.32963"
     rx="5.95043"
     ry="6.08304"
     fill="#3f3d56"
     id="ellipse82" />
  <path
     d="M548.20637,351.622h-14.6a1.1053,1.1053,0,0,0,0,2.21h14.6a1.10511,1.10511,0,0,0,0-2.21Z"
     transform="translate(-206.59003 -163.87113)"
     fill="#3f3d56"
     id="path82" />
  <path
     d="M548.20637,355.772h-14.6a1.10527,1.10527,0,0,0,0,2.21h14.6a1.10508,1.10508,0,0,0,0-2.21Z"
     transform="translate(-206.59003 -163.87113)"
     fill="#3f3d56"
     id="path83" />
  <path
     d="M548.20637,359.92194h-14.6a1.1053,1.1053,0,0,0,0,2.21h14.6a1.10511,1.10511,0,0,0,0-2.21Z"
     transform="translate(-206.59003 -163.87113)"
     fill="#3f3d56"
     id="path84" />
  <path
     d="M900.18575,604.97238a6.41621,6.41621,0,0,0,6.1831,4.331l26.49183-.68178a6.3285,6.3285,0,0,0,5.98085-4.657l3.74888-40.08721a9.79409,9.79409,0,0,0,4.23793.87079,9.66133,9.66133,0,1,0-.4849-19.31658,8.18393,8.18393,0,0,0-1.73618.18056,6.54764,6.54764,0,0,0-4.87405-2.103l-40.75051,1.05229a5.85294,5.85294,0,0,0-1.00519.1248,6.36455,6.36455,0,0,0-4.87318,8.26464Zm43.17345-43.81684,2.66764-9.55274a6.50649,6.50649,0,0,0,.02036-3.37458c.12944-.00034.24363-.06169.37307-.062a6.91049,6.91049,0,0,1,.32357,13.81714A6.50527,6.50527,0,0,1,943.3592,561.15554Z"
     transform="translate(-206.59003 -163.87113)"
     fill="#2f2e41"
     id="path85" />
  <path
     d="M897.97751,544.68623c.86818,4.96412,10.62909,8.45387,22.36585,7.84729,10.79271-.49726,19.61745-4.287,21.23421-8.7785a6.02511,6.02511,0,0,0-1.84436-.24588l-40.75051,1.05229A5.85294,5.85294,0,0,0,897.97751,544.68623Z"
     transform="translate(-206.59003 -163.87113)"
     fill="#3f3d56"
     id="path86" />
  <path
     d="M922.49438,582.94415a.49659.49659,0,0,0,.15091-.06642l5.75315-3.76566a.49923.49923,0,0,0,.00032-.83621l-5.97978-3.91667a.49972.49972,0,1,0-.54792.83585l5.34091,3.49818-5.114,3.34794a.49991.49991,0,0,0,.39637.903Z"
     transform="translate(-206.59003 -163.87113)"
     fill="#ff6600"
     id="path87" />
  <path
     d="M913.40762,583.36319a.5.5,0,0,0,.12608-.91842l-5.30306-3.04034,5.1256-3.80723a.49963.49963,0,1,0-.596-.80208l-5.73862,4.26265a.49951.49951,0,0,0,.04918.83476l5.96525,3.41968A.4997.4997,0,0,0,913.40762,583.36319Z"
     transform="translate(-206.59003 -163.87113)"
     fill="#ff6600"
     id="path88" />
  <path
     d="M921.92215,586.24416a.48233.48233,0,0,0,.137-.05785.49976.49976,0,0,0,.16752-.68714l-8.15548-13.40836a.50026.50026,0,0,0-.85442.52058l8.15548,13.40835A.50035.50035,0,0,0,921.92215,586.24416Z"
     transform="translate(-206.59003 -163.87113)"
     fill="#ff6600"
     id="path89" />
  <rect
     x="209.38454"
     y="260.82713"
     width="50.71916"
     height="10.8457"
     rx="3.26417"
     fill="#ff6600"
     id="rect89" />
  <rect
     x="183.62601"
     y="282.51852"
     width="102.23622"
     height="10.8457"
     rx="3.26417"
     fill="#e6e6e6"
     id="rect90" />
  <rect
     x="183.62601"
     y="304.20991"
     width="102.23622"
     height="10.8457"
     rx="3.26417"
     fill="#e6e6e6"
     id="rect91" />
  <path
     d="M497.30123,540.717l.21675.68444.01142.02283,6.52515,19.838,7.50627,22.86094,14.1227,42.96133.13688,6.67346v.02283l1.04949,53.6845-2.90894,7.2781,3.274,11.93237s-1.50582-18.037-9.5824-7.67884c-4.57448,5.8864-9.92468,11.90961-14.31668,17.55642q9.59964,3.88436,19.50716,7.0271c1.426.45633,2.86334.88983,4.30071,1.32333q.46194.13692.924.27377a266.86342,266.86342,0,0,0,67.35086,10.82587c1.18637.03425,2.35.057,3.47932.07986.39932.01142.78714.02284,1.175.02284,1.27765.01142,2.54389.02277,3.82154.02277q3.86721,0,7.70018-.11405a266.85337,266.85337,0,0,0,56.09149-7.58613c-.12547-7.58606-.46768-16.44984-.9582-25.91819-.22817-4.64293-5.3502-9.67369-5.65823-14.53336-.21675-3.65047,4.38057-7.08419,4.141-10.79169-1.55143-22.82675-3.49075-14.06417-4.92813-30.22882q-.22245-2.37852-.41066-4.55165c-.924-10.381-1.56284-16.872-1.56284-16.872l6.13733-38.68338,9.6395-60.73442-.74153-1.22063-.83274-.41066-50.844-25.16532-2.76064-7.07276a10.97881,10.97881,0,0,0-10.14143-6.94731l-33.4929-.13688a10.93117,10.93117,0,0,0-8.90946,4.52888l-9.069,12.55978Z"
     transform="translate(-206.59003 -163.87113)"
     fill="#3f3d56"
     id="path91" />
  <path
     d="M533.40653,617.52479,525.8204,633.758l-5.179,11.08822-8.90939,46.646-4.46044,4.73414L503.45,679.467l-39.99772,8.88094c-1.31191-7.28951-.3512.24662-1.16117-7.75009.22817-.22817.46768-.45634.70727-.68451.63882-.59322,1.175-1.15218,1.1636-1.68831-.45633-27.58374.9126-74.52633,12.34311-102.96564a60.05328,60.05328,0,0,1,7.02709-13.1074c.22817-.308.44492-.61606.66167-.924,5.27034-7.3808,8.60136-14.64748,13.32415-19.81511v-.01142a.53028.53028,0,0,0,.07986-.07987.157.157,0,0,0,.04561-.03425l32.44341-17.20272,1.39177,39.10546.99247,28.10851Z"
     transform="translate(-206.59003 -163.87113)"
     fill="#3f3d56"
     id="path92" />
  <path
     d="M650.3914,622.13549l9.476,20.275,3.30742,7.06091,8.90681,46.64162,4.44575,4.72264,3.83039-16.75524,1.7998-.36918,32.4585-6.72243,9.46058,30.04631a17.984,17.984,0,0,0-3.26122-22.50556c-.64606-.58457-1.18444-1.15373-1.16913-1.69211.53847-32.4431-1.446-91.68363-19.36733-116.06588-5.69179-7.73777-9.1068-15.44474-14.07562-20.82885-.0154-.0153-.0154-.0307-.03071-.0307L674.0814,526.1139l-.73836-1.21533-.83066-.41528Z"
     transform="translate(-206.59003 -163.87113)"
     fill="#3f3d56"
     id="path93" />
  <circle
     id="a657ec4b-47ce-4d2a-9c58-81a811696ca9"
     data-name="Ellipse 5"
     cx="386.3965"
     cy="267.20052"
     r="44.55826"
     fill="#ffb6b6" />
  <path
     d="M653.21227,399.94791a3.75933,3.75933,0,0,0-2.69-1.19l.67-1.86a3.52769,3.52769,0,0,0-3.96-4.7l-2.44.47.23-1.63a3.53387,3.53387,0,0,0-4.73-3.82,3.76631,3.76631,0,0,1-3.24-.23,3.84647,3.84647,0,0,1-1.92-2.61005l-.85-4.1-.09-.22c-4.14-6.9-12.1-11.92-21.84-13.76-8.67005-1.65-17.56-.81-26.13-.02-3.4.32-7.24.68-10.44,2.64-2.72,1.68-5.02,5.04-4.55,8.43-8.45-2.59-17.51,2.58-22,9.1-5.32,7.76-6.19,17.48-6.33,25.08-.38,17.98,3.33,32.69,11,43.73.56.8.7,2.47,1.81,3.03l-.23-.37c1.24.62,2.5,1.62,2.03,2.69-1.35,3.08,7.62,9.89,13.94,12.14,11.53,4.11,26.86,3.76,37.64,2.28l.38-2.55c3.89-.53,6.63-1.54,7.4-3.12,1.36005-1.16,2.52-2.2,3.53-3.16l.01-.01c.02-.02.06-.05.08-.07,4.87-4.67,6-7.32995,6.51-11.37994.49-3.97-.38-8-1.27-11.63,18.74,2.9-7.38-19.96,10.08-24.38a5.434,5.434,0,0,1,.61-.15c.51-.12,1.02-.24,1.51-.38a26.44846,26.44846,0,0,0,6.72-2.87c4.88-2.97,6.49-6.91,9.01-11.35A3.42652,3.42652,0,0,0,653.21227,399.94791Z"
     transform="translate(-206.59003 -163.87113)"
     fill="#2f2e41"
     id="path94" />
  <path
     d="M750.58227,625.3079c-.01,1.75-.03,4.2-.11,7.23q-.015.63-.03,1.29c-.13,5.57-.26,10.24-.47,15.43-.01.36-.02.71-.04,1.07-.28,7.24-.72,15.67-1.48,29.02-1.41,24.66-3.87,3.39-6.34,12.04-.12.43-.25.94-.37,1.54a27.91582,27.91582,0,0,1-1.88,6.33c-1.31.78-2.66,1.53-3.99,2.28-3.79,2.11-7.63995,4.13995-11.51995,6.07-2.18006,1.08-4.37,2.14-6.57,3.16-.35.16-.69.32-1.03.47a270.88715,270.88715,0,0,1-34.75,13.26c-2.32.7-4.63,1.38-6.97,2.01-2.44.68-4.88,1.32-7.35,1.92a266.8933,266.8933,0,0,1-56.09,7.59c-2.55.08-5.12.11-7.7.11-1.28,0-2.54-.01-3.82-.02-.39,0-.78-.01-1.17-.02-1.13-.03-2.3-.05-3.48-.08a266.66307,266.66307,0,0,1-67.35-10.83l-.93-.27c-1.44-.44-2.87-.87-4.3-1.33q-9.90006-3.135-19.51-7.02-7.335-2.955-14.5-6.34a.33861.33861,0,0,1-.12-.06c-1-.46-2.01-.94-3.01-1.43-.13-.07-.27-.14-.41-.21q-5.59506-2.73-11.07-5.72c-3.07-7.05005-7.39-8.4-10.07-14.6a25.87356,25.87356,0,0,1-1.68-5.74c0-.02-.01-.04-.01-.07.28,3.72-1.19-6.6-.01-.04-.01-.12-.02-.25-.03-.4-.03-.36-.06994-.8-.12994-1.35-3.43-33.49-3.21-71.79-4.7-103.35q-.15006-3.06-.31-5.86c-.03-.62-.07-1.23-.11005-1.83.07-.18.15-.37.24-.55a1.002,1.002,0,0,1,.07-.15,1.62294,1.62294,0,0,1,.1-.18c.02-.03.05-.07.07-.1a.91693.91693,0,0,1,.05-.1c.09-.14.19-.29.3-.43.05-.06.09-.11005.14-.16a.80824.80824,0,0,1,.12-.14.637.637,0,0,1,.11-.13c.04-.04.08-.09.13-.13995a.30159.30159,0,0,1,.08-.08,2.03313,2.03313,0,0,1,.26-.25,9.62387,9.62387,0,0,1,1.14-.9c.13995-.09.29-.18.43-.28a19.13528,19.13528,0,0,1,3.17-1.52c.38-.14.76-.27,1.17-.41.15-.04.29-.09.44-.14.22-.07.44-.14.67-.19,1.14-.34,2.37-.63,3.7-.9.16-.03.33-.06.5-.1.24-.05.49-.09.74-.13.34-.06.69-.12,1.04-.18,2.97-.47,6.34-.82,10.06-1.05q.525-.03,1.05-.06c.41-.02.82-.04,1.24-.06.35-.02.71-.03,1.07-.04.35-.02.71-.03,1.08-.04,1.01-.03,2.05-.06,3.11-.08,3.02-.06,6.2-.04,9.54.03,1.55.04,3.13.08,4.75.15.11005,0,.21.01.31.01,1.41.05,2.83.11,4.29.19,1.02.05,2.05.1,3.07995.16.97.06,1.95.12,2.94.19.77.04,1.54.1,2.32.15.66.05,1.32.1,1.98.14l.9.06c.49.04.98.07,1.48.12,1.1.09,2.2.18,3.32.27,1.11.1,2.24.2,3.37.3s2.27.21,3.41.32c.12.01.23.02.34.03,1.04.11005,2.08.21,3.13.32.24.02.49.04.73.07,1.0011.10058,2.02173.21832,3.032.32568.31006.03345.61847.06586.92944.09985.79139.08618,1.57154.16089,2.36847.25446,1.05.12,2.12006.23,3.16.37.81.09,1.62.18,2.43.28,1.27.15,2.56.31,3.85.48.49.06.98.12,1.47.19,3.68.46,7.4.97,11.18,1.5,5.73.81,11.55,1.69,17.41,2.64q8.80509,1.425,17.71,3.01c1.5.27,3,.54,4.51.82q1.02.19491,2.04.38995c1.16.21,2.32.43,3.48.65,1.16.22,2.32.44,3.48.67,1.38.27,2.77.54,4.15.81,9.09,1.8,18.12994,3.72,26.95,5.73,1.45.32995,2.9.67,4.34,1q4.32,1.005,8.56,2.04c.78.18,1.55.37,2.32.56,1.92.48,3.84.96,5.73,1.45l.33.09c1.39.34,2.75.69,4.11,1.05q4.815,1.26,9.47,2.55,3.09.855,6.11,1.73c3.01.87,5.96,1.75,8.83,2.64.71.22,1.42.44,2.12.65,2.1.65,4.17,1.31,6.18,1.97,1.6.52,3.16,1.05,4.7,1.58q2.31.795,4.53,1.59c.95.34,1.89.7,2.83,1.04,1.35.5,2.68,1,3.98,1.5.4.15.79.31,1.18.46.25.11.49.2.73.3.47.19.95.37,1.41.56.47.18.93.37,1.39.57.45.18.91.37,1.35.56.45.18.89.37,1.33.57.37.15.73.31,1.08.47.71.31,1.42.62,2.11.94.34.16.68.31,1.02.47l.78.36c.11.06.22.11.33.16.25.12.51.25.76.37.57995.27,1.15.56,1.71.83.75.38,1.48.76,2.18,1.13.71.37994,1.4.76,2.06,1.12994.11.06.21.12006.32.18006.15.07995.3.17.45.25.51.29,1,.59,1.49.87994.96.59,1.87,1.17,2.72,1.75.19.13.37.26.56.38.63.45,1.23.89,1.79,1.34,0,.01,0,.01.01.01.19.14.37.29.55.43.15.14.31.26.46.4.52.45,1,.87994,1.44,1.32a5.667,5.667,0,0,1,.42.43,1.20839,1.20839,0,0,1,.16.16c.2.2.38.4.55.6a.55257.55257,0,0,1,.07.09c.24.28.46.56.67.84.1.14.21.28.3.42.12.17.24.35.34.52.09.14.17.29.25.43006a7.2566,7.2566,0,0,1,.54,1.12994,5.2413,5.2413,0,0,1,.27.82A5.84442,5.84442,0,0,1,750.58227,625.3079Z"
     transform="translate(-206.59003 -163.87113)"
     fill="#2f2e41"
     id="path95" />
  <path
     d="M750.58227,625.3079c-.01,1.75-.03,4.2-.11,7.23-.01.42-.03.85-.04,1.29-.1,4.25-.25,9.5-.46,15.43-.01.36-.02.71-.04,1.07-.28,7.24-.72,15.67-1.48,29.02-1.41,24.66-3.87,3.39-6.34,12.04-6.86-4.22-14.38-8.64-22.42-13.18q-2.175-1.23-4.39-2.47c-16.08-8.97-34.04-18.37006-52.79-27.68-.74-.37-1.49-.74-2.23-1.1-42.95-21.23-89.83-41.88-127.81-55.66-7.33-2.66-14.33-5.06-20.91-7.17005-13.86-4.43-25.84-7.53-35.06-8.87-9.6-1.4-16.23-.9-18.91,1.99q-.15006-3.06-.31-5.86-.06006-.93-.12-1.83c.06171-.16462.14191-.32172.21955-.48017.01111-.02313.019-.047.03045-.06982a1.002,1.002,0,0,1,.07-.15,1.62294,1.62294,0,0,1,.1-.18,1.05985,1.05985,0,0,1,.12-.2c.09-.14.19-.29.3-.43a3.48261,3.48261,0,0,1,.26-.30005.637.637,0,0,1,.11-.13c.04-.04.08-.09.13-.13995a.30159.30159,0,0,1,.08-.08,2.03313,2.03313,0,0,1,.26-.25,9.62387,9.62387,0,0,1,1.14-.9c.13995-.09.29-.18.43-.28a19.13528,19.13528,0,0,1,3.17-1.52c.38-.14.76-.27,1.17-.41.15-.04.29-.09.44-.14.22-.07.44-.14.67-.19,1.14-.34,2.37-.63,3.7-.9.4-.08.82-.16,1.24-.23.34-.06.69-.12,1.04-.18,2.97-.47,6.34-.82,10.06-1.05q.525-.03,1.05-.06c.41-.02.82-.04,1.24-.06.35-.02.71-.03,1.07-.04.35-.02.71-.03,1.08-.04,1.01-.03,2.05-.06,3.11-.08,3.02-.05,6.2-.03,9.54.04,1.55.03,3.13.08,4.75.15.1,0,.21.01.31.01,1.41.04,2.84.11,4.29.18,1.02.05,2.05.1,3.07995.16.97.06,1.95.12,2.94.19.77.04,1.54.1,2.32.15.66.05,1.32.1,1.98.14.79.06,1.58.12,2.38.18,1.1.09,2.2.18,3.32.27,1.11.1,2.24.2,3.37.3s2.27.21,3.41.32c.12.01.23.02.34.03,1.04.11005,2.08.21,3.13.32q8.73.885,17.97,2.07,5.52.705,11.18,1.51c5.73.81,11.55,1.69,17.41,2.63q8.80509,1.425,17.71,3.01c1.5.27,3,.54,4.51.82q2.76.50994,5.52,1.04c1.16.22,2.32.44,3.48.67,1.38.27,2.77.54,4.15.81,9.09,1.8,18.12994,3.72,26.95,5.73,1.45.32995,2.9.67,4.34,1q4.32,1.005,8.56,2.04c.78.19,1.55.38,2.32.57q2.895.72,5.73,1.44v.01c.11.02.22.05.33.08,1.38.35,2.75.7,4.11,1.06q4.815,1.26,9.47,2.54c2.06.57995,4.1,1.15,6.11,1.73,3.01.88,5.96,1.76,8.83,2.64.71.22,1.42.44,2.12.65q3.15.99,6.18,1.97c1.6.52,3.16,1.05,4.7,1.58q2.31.795,4.53,1.59c.96.34,1.9.69,2.83,1.03,1.36.5,2.68,1,3.98,1.51.4.15.79.31,1.18.46.73.28,1.44.57,2.14.86.47.18.93.37,1.39.57.45.18.91.37,1.35.56.45.18.89.37,1.33.57.37.15.73.31,1.08.47.71.31,1.42.62,2.11.94.34.16.68.31,1.02.47l.78.36c.11.06.22.11.33.16.85.4,1.67.8,2.47,1.2.75.38,1.48.76,2.18,1.13.83.43994,1.62.87,2.38,1.31.15.07995.3.17.45.25.51.29,1,.59,1.49.87994.96.59,1.87,1.17,2.72,1.75.84.58,1.62,1.15,2.35,1.72,0,.01,0,.01.01.01.35.28.69.56,1.01.83.52.45,1,.87994,1.44,1.32a5.667,5.667,0,0,1,.42.43,1.20839,1.20839,0,0,1,.16.16c.21.23.42.46.62006.69.24.28.46.56.67.84.1.14.21.28.3.42.12.17.24.35.34.52.09.14.17.29.25.43006a7.2566,7.2566,0,0,1,.54,1.12994,6.05312,6.05312,0,0,1,.27.82A5.84442,5.84442,0,0,1,750.58227,625.3079Z"
     transform="translate(-206.59003 -163.87113)"
     opacity="0.2"
     id="path96" />
  <path
     style="fill:#ff8f28;stroke-width:0.461898"
     d="m 503.95995,424.5993 c -0.57004,-1.96884 -1.95446,-5.87852 -3.07648,-8.68818 l -2.04004,-5.10847 0.11842,-34.84567 0.11842,-34.84566 h 63.97281 63.9728 l 0.11788,42.90624 c 0.086,31.31855 -0.0228,43.07575 -0.40298,43.53385 -0.42486,0.51193 -4.37018,0.62759 -21.40713,0.62759 h -20.88628 l -0.59008,-2.65591 c -1.14957,-5.17421 -4.02009,-9.30104 -8.47022,-12.1773 l -2.74205,-1.77227 7.74098,-0.12689 c 6.78556,-0.11122 7.80383,-0.22665 8.25027,-0.93521 0.37114,-0.58906 0.3711,-1.02758 -1.8e-4,-1.61664 -0.45416,-0.72057 -1.55064,-0.82189 -10.10055,-0.93334 -9.83803,-0.12823 -10.86349,0.0309 -10.86349,1.68607 0,0.61005 -0.3942,0.72374 -2.05223,0.59187 -1.68686,-0.13416 -2.07748,-0.34034 -2.19401,-1.15807 -0.12511,-0.87787 -0.4768,-1.01091 -2.99083,-1.13138 -2.55785,-0.12258 -2.88078,-0.0366 -3.15944,0.84142 -0.19579,0.61687 -0.0392,1.27765 0.42418,1.78965 0.6856,0.75758 0.57838,0.88484 -1.60842,1.90909 -2.6332,1.23333 -4.62134,3.08856 -11.28317,10.52886 l -4.61898,5.15874 -17.59638,6.5e-4 -17.59639,6.6e-4 z m 41.25776,-14.08788 c 0.37137,-0.5892 0.37138,-1.02744 2e-5,-1.61664 -0.45416,-0.72057 -1.55065,-0.82189 -10.10056,-0.93334 -9.86179,-0.12854 -10.86348,0.0288 -10.86348,1.70584 0,1.77574 0.78827,1.90554 10.79044,1.77683 8.6199,-0.11093 9.71915,-0.21171 10.17358,-0.93269 z m -23.70328,-0.15419 c 1.15307,-1.38936 -0.0418,-2.27077 -3.07848,-2.27077 -2.25162,0 -2.74216,0.14249 -2.87558,0.8353 -0.33153,1.72151 0.2541,2.16703 2.84854,2.16703 1.71606,0 2.6885,-0.22907 3.10552,-0.73156 z m 32.53165,-0.88508 c 0,-1.38284 -0.006,-1.38569 -2.72105,-1.38569 -2.03715,0 -2.84305,0.19343 -3.20649,0.7696 -0.90751,1.43869 0.42789,2.29214 3.34548,2.1381 2.53073,-0.1336 2.58206,-0.16386 2.58206,-1.52201 z m -0.49489,-5.57576 c 0.86791,-0.86791 0.92434,-1.66228 0.17156,-2.41507 -0.5855,-0.5855 -18.50948,-0.83144 -19.96239,-0.2739 -0.98203,0.37683 -0.93001,2.32897 0.0777,2.91591 0.47225,0.27506 4.58739,0.47665 9.8978,0.48485 7.66016,0.0118 9.20362,-0.10009 9.81533,-0.71179 z m -23.37132,-1.30258 c 0.17924,-1.5702 -0.48647,-2.11179 -2.60779,-2.12159 -2.08508,-0.01 -3.31839,0.73768 -3.31839,2.01074 0,1.54644 0.37795,1.73242 3.21494,1.58205 2.44152,-0.12941 2.56576,-0.19683 2.71124,-1.4712 z m 32.31893,1.01224 c 0.83228,-0.83227 0.66777,-2.12387 -0.33915,-2.66275 -2.03576,-1.08951 -5.57314,-0.26861 -5.57314,1.29331 0,1.33818 0.98415,1.92372 3.23328,1.92372 1.16861,0 2.37416,-0.24942 2.67901,-0.55428 z m 9.23795,0 c 0.83228,-0.83227 0.66777,-2.12387 -0.33915,-2.66275 -2.03576,-1.08951 -5.57314,-0.26861 -5.57314,1.29331 0,1.33818 0.98415,1.92372 3.23329,1.92372 1.1686,0 2.37415,-0.24942 2.679,-0.55428 z m -32.98297,-7.41345 c 0.87732,-1.39915 -0.20074,-2.40523 -2.75372,-2.56984 -1.72411,-0.11116 -2.38477,0.0437 -2.83955,0.66566 -0.76758,1.04974 -0.74757,1.33687 0.15619,2.24063 1.01856,1.01856 4.7315,0.7888 5.43708,-0.33645 z m 23.80325,0.17928 c 0.32049,-0.59884 0.29012,-1.09265 -0.1,-1.62616 -0.49687,-0.6795 -1.68285,-0.75204 -10.48424,-0.64118 -9.15045,0.11525 -9.93651,0.1901 -10.08457,0.96029 -0.40934,2.12937 -0.23063,2.16704 10.2795,2.16704 9.21075,0 9.96234,-0.0622 10.38929,-0.85999 z m 8.8102,-0.0638 c 0.90106,-1.68363 -0.15681,-2.77138 -2.69525,-2.77138 -2.27951,0 -3.30941,0.57498 -3.30941,1.84759 0,1.27261 1.0299,1.84759 3.30941,1.84759 1.72812,0 2.30705,-0.19843 2.69525,-0.9238 z m 8.97401,0.19796 c 0.85871,-0.85871 0.86608,-0.92045 0.24769,-2.07591 -0.37003,-0.69141 -0.97581,-0.89343 -2.679,-0.89343 -2.27951,0 -3.30941,0.57498 -3.30941,1.84759 0,0.40647 0.24942,0.98846 0.55427,1.29331 0.80889,0.80888 4.32222,0.69267 5.18645,-0.17156 z m -33.42421,-6.68077 c 1.00692,-0.53889 1.17143,-1.83048 0.33915,-2.66276 -0.79139,-0.79139 -4.74898,-0.70658 -5.43199,0.1164 -0.70185,0.84568 -0.2252,2.43737 0.81163,2.71029 1.47496,0.38824 3.3862,0.31506 4.28121,-0.16393 z m 24.37859,-0.88167 c 0.29813,-2.11207 -0.71611,-2.33537 -10.60732,-2.33537 -7.67202,0 -9.2317,0.11502 -9.84251,0.72584 -0.85956,0.85956 -0.86655,0.91957 -0.24291,2.08487 0.45962,0.85879 0.96712,0.89636 10.50817,0.77795 l 10.02523,-0.12442 z m 8.1104,0.75656 c 0.50713,-0.37081 0.7636,-1.0382 0.66566,-1.73211 -0.14879,-1.05409 -0.34292,-1.12887 -2.93073,-1.12887 -2.5878,0 -2.78194,0.0748 -2.93072,1.12887 -0.19768,1.40044 0.97558,2.33536 2.93072,2.33536 0.79205,0 1.81133,-0.27146 2.26507,-0.60325 z m 9.23795,0 c 0.50713,-0.37081 0.7636,-1.0382 0.66566,-1.73211 -0.14879,-1.05409 -0.34292,-1.12887 -2.93073,-1.12887 -2.5878,0 -2.78194,0.0748 -2.93072,1.12887 -0.19768,1.40044 0.97558,2.33536 2.93072,2.33536 0.79205,0 1.81133,-0.27146 2.26507,-0.60325 z m -41.72694,-6.80336 c 1.00692,-0.53888 1.17143,-1.83048 0.33915,-2.66275 -0.30485,-0.30485 -1.5104,-0.55428 -2.679,-0.55428 -2.24572,0 -3.23329,0.58553 -3.23329,1.91702 0,1.57053 3.52937,2.3938 5.57314,1.30001 z m 32.74326,-0.18927 c 0.30465,-0.36708 0.48599,-1.14653 0.40298,-1.73212 -0.13844,-0.97659 -0.38027,-1.06469 -2.92232,-1.06469 -2.54205,0 -2.78387,0.0881 -2.92231,1.06469 -0.2298,1.62099 0.71837,2.39954 2.92231,2.39954 1.15028,0 2.19516,-0.27681 2.51934,-0.66742 z m 9.23795,0 c 0.30465,-0.36708 0.48599,-1.14653 0.40298,-1.73212 -0.13844,-0.97659 -0.38026,-1.06469 -2.92232,-1.06469 -2.54205,0 -2.78387,0.0881 -2.92231,1.06469 -0.2298,1.62099 0.71837,2.39954 2.92231,2.39954 1.15028,0 2.19516,-0.27681 2.51934,-0.66742 z m -17.60262,-1.15429 c 0.29813,-2.11207 -0.71611,-2.33537 -10.60732,-2.33537 -7.67202,0 -9.2317,0.11502 -9.84251,0.72584 -0.85956,0.85956 -0.86655,0.91957 -0.24291,2.08486 0.45962,0.8588 0.96712,0.89637 10.50817,0.77796 l 10.02523,-0.12442 z m -32.49216,-7.18529 c 0,-1.35332 -0.059,-1.38904 -2.52641,-1.52882 -2.88758,-0.1636 -4.06834,0.68757 -3.20128,2.30768 0.395,0.73805 0.90151,0.85971 3.09992,0.74452 2.58121,-0.13525 2.62777,-0.16224 2.62777,-1.52338 z m 23.0571,1.33628 c 0.42431,-0.16283 0.73062,-0.81988 0.73062,-1.56723 0,-0.74735 -0.30631,-1.4044 -0.73062,-1.56722 -0.95272,-0.36559 -18.37142,-0.36559 -19.32414,0 -0.87334,0.33513 -0.99336,2.76992 -0.15326,3.10891 0.83297,0.3361 18.60733,0.35941 19.4774,0.0255 z m 9.53881,-0.4512 c 1.15306,-1.38936 -0.0419,-2.27077 -3.07849,-2.27077 -2.25161,0 -2.74216,0.14249 -2.87558,0.8353 -0.33153,1.72151 0.2541,2.16703 2.84855,2.16703 1.71605,0 2.68849,-0.22907 3.10552,-0.73156 z m 9.17167,-0.12843 c 0.32205,-0.60177 0.28805,-1.09548 -0.11325,-1.64429 -0.8359,-1.14316 -5.54729,-0.8681 -5.77654,0.33725 -0.32894,1.72954 0.25469,2.16703 2.89085,2.16703 2.00317,0 2.63577,-0.18141 2.99894,-0.85999 z m 24.70788,0.57963 c 0.42432,-0.16283 0.73063,-0.81988 0.73063,-1.56723 0,-0.74735 -0.30631,-1.4044 -0.73063,-1.56722 -0.40184,-0.1542 -4.96731,-0.28037 -10.14549,-0.28037 -8.50024,0 -9.45526,0.0785 -9.83061,0.80832 -0.46104,0.89642 -0.21063,2.01337 0.56797,2.53337 0.60961,0.40713 18.3634,0.47403 19.40813,0.0731 z m -75.09217,-8.00791 c 0.19381,-1.3731 -0.96751,-2.33537 -2.81843,-2.33537 -1.89703,0 -3.11463,0.78882 -3.11463,2.01781 0,1.54643 0.37795,1.73242 3.21494,1.58205 2.31714,-0.12282 2.57382,-0.24223 2.71812,-1.26449 z m 23.36444,0.63397 c 0.39921,-0.39921 0.72583,-0.99732 0.72583,-1.32914 0,-1.49161 -1.22003,-1.65956 -11.14413,-1.53408 l -9.8722,0.12483 -0.15934,1.12886 c -0.29812,2.11207 0.71611,2.33537 10.60732,2.33537 7.67203,0 9.2317,-0.11502 9.84252,-0.72584 z m 8.94761,0.17156 c 0.83228,-0.83227 0.66777,-2.12387 -0.33915,-2.66275 -2.03576,-1.08951 -5.57314,-0.26862 -5.57314,1.29331 0,1.33818 0.98415,1.92372 3.23328,1.92372 1.16861,0 2.37416,-0.24943 2.67901,-0.55428 z m 9.23795,0 c 0.83228,-0.83227 0.66777,-2.12387 -0.33915,-2.66275 -2.03576,-1.08951 -5.57314,-0.26862 -5.57314,1.29331 0,1.33818 0.98415,1.92372 3.23329,1.92372 1.1686,0 2.37415,-0.24943 2.679,-0.55428 z m 24.42553,0.27151 c 1.25592,-0.33684 1.6778,-1.3552 1.04852,-2.53103 -0.45749,-0.85481 -0.97701,-0.89313 -10.50651,-0.77486 l -10.02524,0.12443 -0.15934,1.12886 c -0.29558,2.09409 0.74923,2.33591 10.06295,2.32906 4.71476,-0.003 9.02559,-0.12788 9.57962,-0.27646 z m -74.67998,-7.56949 c 0.90106,-1.68364 -0.15681,-2.77138 -2.69526,-2.77138 -2.2795,0 -3.30941,0.57498 -3.30941,1.84759 0,1.27261 1.02991,1.84759 3.30941,1.84759 1.72813,0 2.30705,-0.19843 2.69526,-0.9238 z m 32.51384,-0.11547 c 0.89434,-1.42557 -0.19872,-2.40676 -2.85586,-2.56358 -1.97671,-0.11667 -2.42902,0.0114 -2.85554,0.80832 -0.36778,0.68721 -0.36778,1.20666 0,1.89388 0.42652,0.79694 0.87883,0.92498 2.85554,0.80832 1.62728,-0.096 2.50452,-0.38692 2.85586,-0.94694 z m 9.23795,0 c 0.86835,-1.38414 -0.20107,-2.40505 -2.68918,-2.56721 -2.30698,-0.15036 -3.4965,0.43583 -3.4965,1.72306 0,1.38137 1.04733,1.92998 3.4138,1.78817 1.54882,-0.0928 2.42508,-0.39123 2.77188,-0.94402 z m -18.00301,-0.18055 c 0.15996,-0.41685 0.16819,-1.14434 0.0183,-1.61664 -0.25472,-0.80255 -0.93341,-0.85872 -10.37591,-0.85872 -6.59956,0 -10.20798,0.16928 -10.40505,0.48815 -0.16593,0.26848 -0.17424,0.99597 -0.0185,1.61664 l 0.28323,1.12849 h 10.10353 c 8.94035,0 10.13701,-0.0873 10.39437,-0.75792 z m 43.20796,0.0872 c 0.30614,-0.36888 0.42027,-1.1003 0.25361,-1.62539 -0.29588,-0.93223 -0.54405,-0.95178 -10.54027,-0.83049 -9.45303,0.11471 -10.24957,0.18821 -10.39786,0.95953 -0.40925,2.12861 -0.22774,2.16703 10.23917,2.16703 8.08125,0 9.99048,-0.12259 10.44535,-0.67068 z"
     id="path97" />
  <path
     style="fill:#ff8f28;stroke-width:0.461898"
     d="m 210.93419,270.65076 c -1.13606,-0.89363 -1.23272,-1.23603 -1.23272,-4.36684 0,-3.11988 0.0993,-3.47533 1.21704,-4.3545 1.19383,-0.93907 1.65087,-0.95732 23.9675,-0.95732 26.92527,0 24.93135,-0.42024 24.93135,5.25451 0,5.59031 2.21692,5.1167 -24.64975,5.26599 -22.76035,0.12648 -23.01359,0.11768 -24.23342,-0.84184 z"
     id="path98" />
  <path
     style="fill:#ff8f28;stroke-width:0.174725"
     d=""
     id="path99" />
  <path
     style="fill:#ff8f28;stroke-width:0.174725"
     d=""
     id="path100" />
  <path
     style="fill:#ff8f28;stroke-width:0.174725"
     d="m 715.41266,418.81649 c -0.18875,-0.3054 0.0714,-0.51942 2.76175,-2.27234 l 2.63399,-1.71618 -2.82892,-1.85366 c -2.65707,-1.74106 -3.15655,-2.20679 -2.59696,-2.42152 0.31348,-0.1203 6.62594,4.02206 6.54291,4.29357 -0.0769,0.25143 -5.89177,4.13847 -6.19669,4.14227 -0.11446,10e-4 -0.25669,-0.076 -0.31608,-0.17214 z"
     id="path101" />
  <path
     style="fill:#ff8f28;stroke-width:0.174725"
     d="m 714.91717,422.17996 c -0.0436,-0.0721 -1.94014,-3.1898 -4.21453,-6.92828 -3.5141,-5.77625 -4.09905,-6.83342 -3.89434,-7.03813 0.20472,-0.20472 0.28251,-0.19416 0.51794,0.0703 0.65059,0.73085 8.31262,13.5679 8.22873,13.78652 -0.0986,0.25695 -0.50624,0.32699 -0.6378,0.10958 z"
     id="path102" />
  <path
     style="fill:#ff8f28;stroke-width:0.174725"
     d="m 703.35661,417.58098 c -1.69012,-0.98836 -2.97033,-1.84673 -2.97033,-1.99159 0,-0.31751 5.84904,-4.66159 6.18827,-4.59602 0.65023,0.12566 0.18108,0.62455 -2.35635,2.50569 l -2.74479,2.03487 1.37841,0.79295 c 3.48097,2.00245 4.17402,2.4472 4.17402,2.67858 0,0.55566 -0.84235,0.22864 -3.66923,-1.42448 z"
     id="path103" />
</svg>
