<?xml version="1.0" encoding="UTF-8"?>
<svg width="570" height="400" version="1.1" viewBox="0 0 150.81 105.83" xmlns="http://www.w3.org/2000/svg"><defs><style>.cls-1{fill:#a54544;}.cls-2{fill:#fc4f4f;}.cls-3{fill:#bebcbd;}.cls-4{fill:#e31c41;}.cls-5{fill:#59595b;}</style></defs><g transform="translate(518.53 210.76)"><rect x="-518.53" y="-210.76" width="150.81" height="105.83" fill="#fff" fill-opacity=".99842" fill-rule="evenodd" stroke-width=".066416"/></g><g transform="translate(518.53 210.76)" fill="#58b3b4"><g transform="matrix(2.2049 0 0 2.2049 -496.04 -210.76)" stroke-width=".99996"><path d="m11 10c0-0.55228 0.4477-1 1-1h16c0.2652 0 0.5196 0.10536 0.7071 0.29289l8 8c0.1875 0.1875 0.2929 0.4419 0.2929 0.7071v20c0 0.5523-0.4477 1-1 1h-24c-0.5523 0-1-0.4477-1-1s0.4477-1 1-1h23v-18h-7c-0.5523 0-1-0.4477-1-1v-7h-14v23c0 0.5523-0.4477 1-1 1s-1-0.4477-1-1zm18 2.4142 4.5858 4.5858h-4.5858z" clip-rule="evenodd" fill="#58b3b4" fill-rule="evenodd" stroke-width=".99996"/></g><text x="-456.3942" y="-139.23003" font-family="sans-serif" font-size="10.583px" stroke-width=".26458" style="line-height:1.25" xml:space="preserve"><tspan x="-456.3942" y="-139.23003" fill="#58b3b4" font-family="sans-serif" font-weight="bold" stroke-width=".26458">.csv</tspan></text></g><g transform="translate(518.53 210.76)"><path d="m-518.53-198.86h23.249c1.1338 0 2.0466 1.9126 2.0466 4.2884v4.6525c0 2.3758-0.91279 4.2884-2.0466 4.2884h-23.249z" fill="#58b3b4" stroke-width=".14767"/><text x="-514.19659" y="-189.65004" fill="#979797" font-family="sans-serif" font-size="7.0556px" stroke-width=".26458" style="line-height:1.25" xml:space="preserve"><tspan x="-514.19659" y="-189.65004" fill="#ffffff" font-size="7.0556px" stroke-width=".26458">CSV</tspan></text></g><style type="text/css">.st0{fill:#00a3e0;}</style></svg>
