<?xml version="1.0" encoding="UTF-8"?>
<svg width="570" height="400" version="1.1" viewBox="0 0 150.81 105.83" xmlns="http://www.w3.org/2000/svg"><defs><style>.cls-1{fill:#a54544;}.cls-2{fill:#fc4f4f;}.cls-3{fill:#bebcbd;}.cls-4{fill:#e31c41;}.cls-5{fill:#59595b;}</style></defs><g transform="translate(518.53 210.76)"><rect x="-518.53" y="-210.76" width="150.81" height="105.83" fill="#fff" fill-opacity=".99842" fill-rule="evenodd" stroke-width=".066416"/></g><g transform="translate(518.53 210.76)"><g transform="matrix(1.0844 0 0 1.0114 -478.37 -190.61)" fill="#ff9700"><g fill="#ff9700"><path d="m42.5 55.5h-9.9v-13.8h21.4l9-29.4h-9v-7.2h-24.9l-6-5.4h-17.1v41.9h25v13.8h-9.9v4.1h-19.1v1.5h19.1v4.1h21.3v-4.1h19.1v-1.5h-19zm-35-54.2h15l6 5.4h23.9v5.7h-37.7l-7.2 23.5zm8.3 12.5h45.1l-8 26.4h-45.1zm25.2 50h-18.3v-6.8h18.3z"/><rect x="27.4" y="59.6" width="1.5" height="1.5"/><rect x="34.4" y="59.6" width="1.5" height="1.5"/><rect x="30.9" y="59.6" width="1.5" height="1.5"/><rect x="34.5" y="35.3" width="1.5" height="1.5"/><rect x="39" y="35.3" width="1.5" height="1.5"/><rect x="48" y="35.3" width="1.5" height="1.5"/><rect x="43.5" y="35.3" width="1.5" height="1.5"/></g></g></g><g transform="translate(518.53 210.76)"><path d="m-518.53-198.86h28.878c1.4083 0 2.5421 1.9126 2.5421 4.2884v4.6525c0 2.3758-1.1338 4.2884-2.5421 4.2884h-28.878z" fill="#ff9700" stroke-width=".16457"/><text x="-514.19659" y="-189.65004" fill="#979797" font-family="sans-serif" font-size="7.0556px" stroke-width=".26458" style="line-height:1.25" xml:space="preserve"><tspan x="-514.19659" y="-189.65004" fill="#ffffff" font-size="7.0556px" stroke-width=".26458">FTP(S)</tspan></text></g><style type="text/css">.st0{fill:#00a3e0;}</style></svg>
