<?xml version="1.0" encoding="UTF-8"?>
<svg width="570" height="400" version="1.1" viewBox="0 0 150.81 105.83" xmlns="http://www.w3.org/2000/svg"><defs><style>.cls-1{fill:#a54544;}.cls-2{fill:#fc4f4f;}.cls-3{fill:#bebcbd;}.cls-4{fill:#e31c41;}.cls-5{fill:#59595b;}</style></defs><g transform="translate(518.53 210.76)"><rect x="-518.53" y="-210.76" width="150.81" height="105.83" fill="#fff" fill-opacity=".99842" fill-rule="evenodd" stroke-width=".066416"/></g><g transform="translate(518.53 210.76)"><g transform="matrix(1.1393 0 0 1.1393 -500.09 -214.77)" fill="#5873b4"><path d="m28.91 79h-10.85a4.66 4.66 0 0 1-4.66-4.66v-10.82a4.66 4.66 0 0 1 4.66-4.66h10.85a4.66 4.66 0 0 1 4.66 4.66v1.74a14.18 14.18 0 0 0 8.14-3.07 13.59 13.59 0 0 0 2.62-3l1.67-2.51 1 2.86a19.52 19.52 0 0 0 1.82 3.79l0.59 0.94-0.72 0.84a22.64 22.64 0 0 1-2.46 2.43 21.61 21.61 0 0 1-12.66 4.75v2.08a4.66 4.66 0 0 1-4.66 4.63zm-10.85-18.14a2.66 2.66 0 0 0-2.66 2.66v10.84a2.66 2.66 0 0 0 2.66 2.64h10.85a2.66 2.66 0 0 0 2.66-2.66v-4h1c2.8-0.06 8.13-0.69 12.38-4.31a20.82 20.82 0 0 0 2-1.94 21.33 21.33 0 0 1-1.48-3 15.84 15.84 0 0 1-2.47 2.62 16.71 16.71 0 0 1-10.42 3.6h-1v-3.79a2.66 2.66 0 0 0-2.66-2.66zm11.29 13.95h-11.73v-11.73h11.73zm-9.73-2h7.73v-7.73h-7.73z"/><path d="m54 43.27-1-2.86a19.46 19.46 0 0 0-1.82-3.79l-0.59-0.94 0.72-0.84a22.71 22.71 0 0 1 2.46-2.42 21.22 21.22 0 0 1 12.66-4.75v-2.07a4.66 4.66 0 0 1 4.66-4.66h10.85a4.66 4.66 0 0 1 4.66 4.66v10.85a4.66 4.66 0 0 1-4.66 4.66h-10.85a4.66 4.66 0 0 1-4.66-4.66v-1.75a14.12 14.12 0 0 0-8.14 3.07 13.49 13.49 0 0 0-2.62 3zm14.44-10.65v3.82a2.66 2.66 0 0 0 2.66 2.66h10.84a2.66 2.66 0 0 0 2.66-2.66v-10.84a2.66 2.66 0 0 0-2.66-2.66h-10.85a2.66 2.66 0 0 0-2.66 2.66v4h-1a19.61 19.61 0 0 0-12.38 4.31 20.93 20.93 0 0 0-2 1.93 21.44 21.44 0 0 1 1.48 3 15.83 15.83 0 0 1 2.47-2.59 16.63 16.63 0 0 1 10.42-3.6zm13.94 4.27h-11.73v-11.73h11.73zm-9.73-2h7.73v-7.73h-7.73z"/><path d="m81.94 79h-10.85a4.66 4.66 0 0 1-4.66-4.66v-2.05a21 21 0 0 1-15.43-7.58c-3-3.71-4.4-8.4-4.5-15.16-0.09-5.77-1.91-9.82-5.57-12.37a14.84 14.84 0 0 0-7.37-2.47v1.74a4.66 4.66 0 0 1-4.66 4.66h-10.84a4.66 4.66 0 0 1-4.66-4.66v-10.85a4.66 4.66 0 0 1 4.66-4.66h10.85a4.66 4.66 0 0 1 4.66 4.66v2.08a24.7 24.7 0 0 1 3 0.35 20.68 20.68 0 0 1 9.63 4.39 20.25 20.25 0 0 1 7.1 13.91c0.13 1.2 0.16 2.4 0.19 3.57a25.79 25.79 0 0 0 0.58 5.7 12.29 12.29 0 0 0 3.26 5.72 13 13 0 0 0 5.39 3.26 16.43 16.43 0 0 0 2 0.48c0.29 0.05 1 0.13 1.68 0.18v-1.72a4.66 4.66 0 0 1 4.66-4.66h10.88a4.66 4.66 0 0 1 4.66 4.66v10.84a4.66 4.66 0 0 1-4.66 4.64zm-50.38-46.37h1a17.29 17.29 0 0 1 9.49 2.88c4.16 2.91 6.32 7.62 6.42 14s1.35 10.58 4.07 13.94a19.09 19.09 0 0 0 14.18 6.85h1.72v4a2.66 2.66 0 0 0 2.65 2.7h10.85a2.66 2.66 0 0 0 2.66-2.66v-10.82a2.66 2.66 0 0 0-2.66-2.66h-10.85a2.66 2.66 0 0 0-2.66 2.66v3.85l-1.05-0.06c-0.79 0-2.38-0.18-3-0.28a18.37 18.37 0 0 1-2.26-0.54 15 15 0 0 1-6.21-3.75 14.25 14.25 0 0 1-3.78-6.64 27.61 27.61 0 0 1-0.62-6.1c0-1.13-0.07-2.29-0.18-3.42a18.08 18.08 0 0 0-6.4-12.59 18.67 18.67 0 0 0-8.7-4 23.17 23.17 0 0 0-3.69-0.36h-1v-4a2.66 2.66 0 0 0-2.66-2.66h-10.82a2.66 2.66 0 0 0-2.66 2.63v10.85a2.66 2.66 0 0 0 2.66 2.66h10.85a2.66 2.66 0 0 0 2.66-2.66zm50.82 42.18h-11.73v-11.73h11.73zm-9.73-2h7.73v-7.73h-7.73zm-43.3-35.92h-11.73v-11.73h11.73zm-9.73-2h7.73v-7.73h-7.73z"/></g></g><g transform="translate(518.53 210.76)"><path d="m-518.53-198.86h34.552c1.685 0 3.0416 1.9126 3.0416 4.2884v4.6525c0 2.3758-1.3565 4.2884-3.0416 4.2884h-34.552z" fill="#5873b4" stroke-width=".18002"/><text x="-514.19659" y="-189.65004" fill="#979797" font-family="sans-serif" font-size="7.0556px" stroke-width=".26458" style="line-height:1.25" xml:space="preserve"><tspan x="-514.19659" y="-189.65004" fill="#ffffff" font-size="7.0556px" stroke-width=".26458">MAPPER</tspan></text></g><style type="text/css">.st0{fill:#00a3e0;}</style></svg>
