<?xml version="1.0" encoding="UTF-8" standalone="no"?>
<svg
   xmlns:dc="http://purl.org/dc/elements/1.1/"
   xmlns:cc="http://creativecommons.org/ns#"
   xmlns:rdf="http://www.w3.org/1999/02/22-rdf-syntax-ns#"
   xmlns:svg="http://www.w3.org/2000/svg"
   xmlns="http://www.w3.org/2000/svg"
   width="570"
   height="400"
   viewBox="0 0 150.81249 105.83333"
   version="1.1"
   id="svg8">
  <defs
     id="defs2">
    <rect
       x="-518.59998"
       y="-200.09538"
       width="66.586761"
       height="15.28125"
       id="rect869" />
    <style
       id="style939">.cls-1{fill:#a54544;}.cls-2{fill:#fc4f4f;}.cls-3{fill:#bebcbd;}.cls-4{fill:#e31c41;}.cls-5{fill:#59595b;}</style>
    <style
       id="style903">.cls-1{fill:#265279;}.cls-2{fill:#fff;}</style>
    <style
       id="style982">.cls-1{fill:#265279;}.cls-2{fill:#fff;}</style>
  </defs>
  <metadata
     id="metadata5">
    <rdf:RDF>
      <cc:Work
         rdf:about="">
        <dc:format>image/svg+xml</dc:format>
        <dc:type
           rdf:resource="http://purl.org/dc/dcmitype/StillImage" />
        <dc:title></dc:title>
      </cc:Work>
    </rdf:RDF>
  </metadata>
  <g
     id="layer1"
     style="display:inline"
     transform="translate(518.53052,210.76158)">
    <rect
       style="fill:#ffffff;fill-opacity:0.99842155;fill-rule:evenodd;stroke-width:0.0664156;stroke-miterlimit:4;stroke-dasharray:none"
       id="rect18"
       width="150.8125"
       height="105.83333"
       x="-518.53052"
       y="-210.76158" />
  </g>
  <g
     id="layer3"
     transform="translate(518.53052,210.76158)">
    <g
       id="g961"
       transform="matrix(0.89901329,0,0,0.89901329,-580.18404,-165.07514)"
       style="fill:#265279;fill-opacity:1">
      <path
         class="st0"
         d="M 125.2,15.1 V 1 h 2.8 l 6.1,9.2 V 1 h 3 v 14.1 h -2.8 l -6.1,-9.2 v 9.2 z"
         id="path926"
         style="fill:#265279;fill-opacity:1" />
      <path
         class="st0"
         d="M 139.9,15.1 V 1 h 9.2 V 3.6 H 143 v 3.1 h 5.6 V 9.3 H 143 v 3.3 h 6.3 V 15 Z"
         id="path928"
         style="fill:#265279;fill-opacity:1" />
      <path
         class="st0"
         d="M 155.1,15.1 V 3.5 h -4.2 V 1 h 11.3 V 3.6 H 158 v 11.5 z"
         id="path930"
         style="fill:#265279;fill-opacity:1" />
      <path
         class="st0"
         d="m 164.1,14.4 v -1.6 c 1.3,0.6 2.7,0.9 4.1,0.9 0.9,0.1 1.8,-0.2 2.5,-0.6 0.6,-0.4 0.9,-1.1 0.9,-1.8 0,-0.5 -0.2,-1 -0.6,-1.4 C 170.4,9.4 169.7,9 169,8.8 L 167.5,8.2 C 166.5,7.9 165.6,7.3 164.8,6.6 164.3,6 164,5.3 164,4.5 c 0,-1.1 0.5,-2.1 1.3,-2.8 1.1,-0.7 2.3,-1.1 3.6,-1 0.7,0 1.3,0.1 2,0.2 0.6,0.1 1.2,0.3 1.7,0.6 v 1.6 c -1.1,-0.5 -2.4,-0.8 -3.6,-0.9 -2.1,0 -3.2,0.7 -3.2,2.1 0,0.5 0.2,0.9 0.6,1.2 0.6,0.5 1.3,0.8 2,1.1 l 1.5,0.6 c 1,0.3 2,0.9 2.8,1.7 0.5,0.6 0.8,1.4 0.8,2.3 0.1,1.1 -0.4,2.2 -1.3,2.9 -1.1,0.8 -2.4,1.1 -3.7,1.1 -0.5,0 -1,0 -1.5,-0.1 -0.5,-0.1 -1,-0.2 -1.5,-0.3 -0.7,0 -1.1,-0.2 -1.4,-0.4 z"
         id="path932"
         style="fill:#265279;fill-opacity:1" />
      <path
         class="st0"
         d="M 175.7,8.7 V 1 h 1.8 v 7.7 c 0,1.7 0.3,3 0.9,3.8 1.4,1.5 3.8,1.7 5.3,0.3 0.1,-0.1 0.2,-0.2 0.3,-0.3 0.6,-0.8 0.9,-2.1 0.9,-3.8 V 1 h 1.8 v 7.8 c 0,2.3 -0.5,3.9 -1.4,5 -0.9,1.1 -2.3,1.6 -4.1,1.6 -1.8,0 -3.2,-0.5 -4.1,-1.6 -0.9,-1.1 -1.4,-2.8 -1.4,-5.1 z"
         id="path934"
         style="fill:#265279;fill-opacity:1" />
      <path
         class="st0"
         d="M 189.7,15.1 V 1 h 1.8 v 14.1 z"
         id="path936"
         style="fill:#265279;fill-opacity:1" />
      <path
         class="st0"
         d="M 198.4,15.1 V 2.5 H 194 V 1 h 10.7 v 1.5 h -4.5 V 15 h -1.8 z"
         id="path938"
         style="fill:#265279;fill-opacity:1" />
      <path
         class="st0"
         d="M 207.1,15.1 V 1 h 8.7 v 1.5 h -6.9 v 4.6 h 6.3 v 1.5 h -6.3 v 4.8 h 7.1 v 1.5 h -8.9 z"
         id="path940"
         style="fill:#265279;fill-opacity:1" />
    </g>
    <g
       id="g1001"
       transform="matrix(0.29765624,0,0,0.29765624,-504.92995,-175.71024)"
       style="fill:#265279;fill-opacity:1">
      <path
         class="cls-2"
         d="M 22.43,42.43 H 38.81 V 81.34 H 47 V 96.55 H 22.43 Z m 75.81,35.8 H 81.86 V 39.32 h -8.15 v -15.2 h 24.53 z"
         transform="translate(-0.33,-0.33)"
         id="path988"
         style="fill:#265279;fill-opacity:1" />
      <path
         class="cls-2"
         d="M 18.66,20.35 H 70.42 V 64.79 L 50.52,39.15 H 18.66 Z m 83.35,80 H 50.24 V 55.88 L 70.15,81.51 H 102"
         transform="translate(-0.33,-0.33)"
         id="path990"
         style="fill:#265279;fill-opacity:1" />
    </g>
  </g>
  <g
     id="layer2"
     style="display:inline;opacity:1"
     transform="translate(518.53052,210.76158)">
    <text
       xml:space="preserve"
       id="text867"
       style="font-style:normal;font-weight:normal;font-size:8.46667px;line-height:1.25;font-family:sans-serif;white-space:pre;shape-inside:url(#rect869);fill:#00c7ff;fill-opacity:1;stroke:none;"
       x="26.073866"
       y="0"
       transform="translate(-6.0123457,3.5714077)"><tspan
         x="-508.20964"
         y="-192.60468"><tspan
           style="font-style:normal;font-variant:normal;font-weight:normal;font-stretch:normal;font-size:8.46667px;font-family:FontAwesome;-inkscape-font-specification:FontAwesome;text-align:center;text-anchor:middle;fill:#00c7ff;fill-opacity:1">SCHEDULE</tspan></tspan></text>
    <path
       id="rect1375"
       style="fill:#265279;fill-opacity:1;stroke-width:0.238545"
       d="m -518.53049,-198.85533 h 60.67195 c 2.95884,0 5.34089,1.91261 5.34089,4.28835 v 4.65247 c 0,2.37575 -2.38205,4.28835 -5.34089,4.28835 h -60.67195 z" />
    <text
       xml:space="preserve"
       style="font-style:normal;font-weight:normal;font-size:7.05556px;line-height:1.25;font-family:sans-serif;fill:#979797;fill-opacity:1;stroke:none;stroke-width:0.264583"
       x="-514.19659"
       y="-189.65004"
       id="text1380"><tspan
         id="tspan1378"
         x="-514.19659"
         y="-189.65004"
         style="font-size:7.05556px;fill:#ffffff;fill-opacity:1;stroke-width:0.264583">NETSUITE SOAP</tspan></text>
  </g>
  <style
     type="text/css"
     id="style909">
	.st0{fill:#00a3e0;}
</style>
  <style
     type="text/css"
     id="style924">
	.st0{fill:#FFFFFF;}
</style>
</svg>
