<?xml version="1.0" encoding="UTF-8"?>
<svg width="570" height="400" version="1.1" viewBox="0 0 150.81 105.83" xmlns="http://www.w3.org/2000/svg"><defs><style>.cls-1{fill:#a54544;}.cls-2{fill:#fc4f4f;}.cls-3{fill:#bebcbd;}.cls-4{fill:#e31c41;}.cls-5{fill:#59595b;}</style></defs><g transform="translate(518.53 210.76)"><rect x="-518.53" y="-210.76" width="150.81" height="105.83" fill="#fff" fill-opacity=".99842" fill-rule="evenodd" stroke-width=".066416"/><path d="m-518.53-198.86h71.566c3.4901 0 6.2999 1.9126 6.2999 4.2884v4.6525c0 2.3758-2.8098 4.2884-6.2999 4.2884h-71.566z" fill="#000000" stroke-width="1.285"/><text x="-514.19659" y="-189.65004" fill="#979797" font-family="sans-serif" font-size="7.0556px" stroke-width=".26458" style="line-height:1.25" xml:space="preserve"><tspan x="-514.19659" y="-189.65004" fill="#ffffff" font-size="7.0556px" stroke-width=".26458">PARALLEL GATEWAY</tspan></text></g><style type="text/css">.st0{fill:#00a3e0;}</style><g transform="matrix(2.5929 0 0 2.5929 33.918 16.189)" fill="#000000"><path d="m13.664 10.737h8.045v2.627l7.556-4.362-7.556-4.363v2.598h-11.96c1.543 0.864 2.79 2.173 3.915 3.5zm8.045 10.406c-0.618-0.195-1.407-0.703-2.291-1.588-1.79-1.756-3.712-4.674-5.731-7.229-2.049-2.486-4.16-4.972-7.452-5.092h-3.5v3.5h3.5c0.656-0.027 1.684 0.486 2.879 1.684 1.788 1.753 3.712 4.67 5.731 7.225 1.921 2.328 3.907 4.64 6.863 5.017v2.702l7.556-4.359-7.556-4.361v2.501z"/></g></svg>
