<?xml version="1.0" encoding="UTF-8" standalone="no"?>
<svg
   width="570"
   height="400"
   viewBox="0 0 150.81249 105.83333"
   version="1.1"
   id="svg8"
   sodipodi:docname="quickbooks.svg"
   inkscape:version="1.1.1 (eb90963e84, 2021-10-02)"
   xmlns:inkscape="http://www.inkscape.org/namespaces/inkscape"
   xmlns:sodipodi="http://sodipodi.sourceforge.net/DTD/sodipodi-0.dtd"
   xmlns="http://www.w3.org/2000/svg"
   xmlns:svg="http://www.w3.org/2000/svg"
   xmlns:rdf="http://www.w3.org/1999/02/22-rdf-syntax-ns#"
   xmlns:cc="http://creativecommons.org/ns#"
   xmlns:dc="http://purl.org/dc/elements/1.1/">
  <sodipodi:namedview
     id="namedview20"
     pagecolor="#ffffff"
     bordercolor="#666666"
     borderopacity="1.0"
     inkscape:pageshadow="2"
     inkscape:pageopacity="0.0"
     inkscape:pagecheckerboard="0"
     showgrid="false"
     inkscape:zoom="1.1009789"
     inkscape:cx="187.56036"
     inkscape:cy="396.01121"
     inkscape:window-width="1869"
     inkscape:window-height="1025"
     inkscape:window-x="51"
     inkscape:window-y="27"
     inkscape:window-maximized="1"
     inkscape:current-layer="layer2" />
  <defs
     id="defs2">
    <rect
       x="-518.59998"
       y="-200.09538"
       width="66.586761"
       height="15.28125"
       id="rect869" />
  </defs>
  <metadata
     id="metadata5">
    <rdf:RDF>
      <cc:Work
         rdf:about="">
        <dc:format>image/svg+xml</dc:format>
        <dc:type
           rdf:resource="http://purl.org/dc/dcmitype/StillImage" />
      </cc:Work>
    </rdf:RDF>
  </metadata>
  <g
     id="layer1"
     style="display:inline"
     transform="translate(518.53052,210.76158)">
    <rect
       style="fill:#ffffff;fill-opacity:0.99842155;fill-rule:evenodd;stroke-width:0.0664156;stroke-miterlimit:4;stroke-dasharray:none"
       id="rect18"
       width="150.8125"
       height="105.83333"
       x="-518.53052"
       y="-210.76158" />
    <g
       id="Page-1"
       stroke="none"
       stroke-width="1"
       fill="none"
       fill-rule="evenodd"
       transform="matrix(0.22542382,0,0,0.22542382,-513.29207,-167.07506)">
      <g
         id="Logotype"
         transform="translate(-210,-363)">
        <g
           id="qb-logo"
           transform="translate(210,363)">
          <g
             id="Group">
            <path
               d="m 616.42208,90.952941 c 0,-1.262353 -1.0756,-1.722353 -2.17587,-1.722353 h -2.06079 v 5.874118 h 1.05447 v -2.456471 h 0.75503 l 1.37387,2.455294 h 1.28227 l -1.58053,-2.571764 c 0.82432,-0.18353 1.35038,-0.734118 1.35038,-1.582353 z M 613.23989,91.8 v -1.674118 h 0.96053 c 0.55189,0 1.16954,0.16 1.16954,0.802353 0,0.710588 -0.68693,0.870588 -1.28227,0.870588 h -0.84545 z m 0.98284,-4.817647 c -2.88512,0 -5.21951,2.317647 -5.21951,5.208235 0,2.890588 2.33439,5.162353 5.21951,5.162353 2.88511,0 5.22185,-2.270588 5.22185,-5.162353 0,-2.891765 -2.33674,-5.208235 -5.22185,-5.208235 z m 0,9.611765 c -2.42599,0 -4.39637,-1.995295 -4.39637,-4.40353 0,-2.431764 1.97038,-4.404706 4.39637,-4.404706 2.42833,0 4.39754,1.972942 4.39754,4.404706 0,2.408235 -1.96921,4.404706 -4.39754,4.404706 z M 278.34595,87.862353 c -7.6361,0 -11.48644,-6.835294 -11.48644,-13.447059 0,-6.609412 4.17795,-13.155294 11.12007,-13.155294 3.25265,0 7.3625,1.635294 8.97709,3.932941 l 8.08466,-8.070588 c -3.91258,-4.131765 -10.15133,-6.597647 -17.06175,-6.597647 -14.0592,0 -24.26454,10.109412 -24.26454,24.037647 0,14.152941 10.09144,24.038823 24.54166,24.038823 6.87402,0 13.22785,-2.01647 16.99481,-6.074117 l -7.8639,-8.455294 c -1.81655,2.21647 -5.62462,3.791764 -9.04166,3.791764 z m -45.21538,9.455294 H 245.675 V 51.804706 h -12.54443 z m -22.80966,-20.56 c 0,5.348235 -3.47928,11.105882 -9.96462,11.105882 -4.99993,0 -7.66781,-3.572941 -7.66781,-10.922353 v -25.13647 h -12.54795 v 28.247059 c 0,9.4 4.6817,18.548235 17.19913,18.548235 5.90292,0 10.84765,-4.656471 13.33939,-8.094118 h 0.18788 v 6.811765 h 11.99489 V 51.804706 H 210.31739 V 76.757647 Z M 157.51288,57.583529 h -0.2783 c -1.7731,-1.964706 -6.57223,-7.058823 -14.36803,-7.058823 -12.78985,0 -22.64526,10.030588 -22.64526,23.854117 0,14.035295 9.0945,24.221177 22.04405,24.221177 5.87943,0 11.40189,-3.122353 14.60405,-6.752941 h 0.18553 v 27.882351 h 12.54444 V 51.804706 h -12.08648 z m -12.17924,30.278824 c -7.75705,0 -12.16516,-6.78353 -12.16516,-13.482353 0,-6.408235 4.04762,-13.303529 12.16516,-13.303529 7.46583,0 12.08647,7 12.08647,13.484706 0,6.537646 -4.52083,13.301176 -12.0853,13.301176 z m 285.7284,-37.338824 c -14.27409,0 -24.63325,10.031765 -24.63325,23.855294 0,14.30353 10.58932,24.34353 24.63208,24.34353 14.04159,0 24.63208,-10.136471 24.63208,-24.34353 0,-13.823529 -10.35916,-23.855294 -24.63208,-23.855294 z m 0,37.338824 c -8.18094,0 -11.90681,-6.988235 -11.90681,-13.482353 0,-6.408235 3.72587,-13.303529 11.90681,-13.303529 8.17978,0 11.90448,6.894117 11.90448,13.302352 0,6.494118 -3.7247,13.482353 -11.90682,13.482353 z M 587.88799,69.304706 C 581.43201,67.76 579.1575,66.928235 579.1575,64.310588 c 0,-3.611764 4.5678,-4.404706 6.63447,-4.404706 3.89261,0 8.29015,2.329412 9.94348,4.541177 l 7.39773,-7.110588 c -3.42174,-4.305883 -10.1478,-6.811765 -17.24962,-6.811765 -9.07924,0 -18.61174,4.572941 -18.61174,14.792941 0,8.776471 6.86579,11.423529 13.58363,13.035294 7.08069,1.652941 9.60531,2.858824 9.60531,5.717647 0,4.211765 -4.77095,4.9 -6.41137,4.9 -4.10397,0 -8.85965,-2.352941 -11.42538,-5.404706 l -7.61496,7.735294 c 4.15917,4.62353 11.27978,7.40353 18.58239,7.40353 12.26261,0 19.53939,-5.856471 19.53939,-15.521177 0,-9.247058 -8.90663,-12.35647 -15.24401,-13.877647 z m -23.715,-17.501177 H 547.99545 L 531.8003,70.689412 h -0.27947 V 26.722353 h -12.54325 v 70.594118 h 12.54325 V 74.869412 h 0.27947 l 16.80341,22.447059 h 16.50633 L 545.58239,72.443529 Z M 378.16125,50.521177 c -5.73735,0 -9.96345,2.512941 -13.9547,6.258823 H 363.9717 V 26.721176 h -12.54091 v 70.595295 h 11.99372 v -6.432942 h 0.18788 c 2.82757,4.647059 8.4475,7.715294 14.27526,7.715294 12.94837,0 22.76504,-10.188235 22.76504,-24.221176 0,-13.823529 -9.69924,-23.855294 -22.49027,-23.855294 z m -2.46591,37.341176 c -7.56682,0 -12.08883,-6.764706 -12.08883,-13.302353 0,-6.484706 4.62182,-13.484706 12.08883,-13.484706 8.11637,0 12.15341,6.894118 12.15341,13.302353 0,6.7 -4.39754,13.482353 -12.15341,13.482353 z m -28.985,-36.058824 h -16.17871 l -16.19515,18.885883 h -0.27947 V 26.722353 h -12.54326 v 70.594118 h 12.54326 V 74.869412 h 0.27947 l 16.80341,22.447059 h 16.50632 L 328.11856,72.443529 Z m 139.47182,-1.282352 c -14.27409,0 -24.63326,10.032941 -24.63326,23.85647 0,14.30353 10.58932,24.343529 24.63209,24.343529 14.04041,0 24.6309,-10.13647 24.6309,-24.343529 0,-13.823529 -10.35916,-23.855294 -24.63208,-23.855294 z m 0,37.341176 c -8.18095,0 -11.90682,-6.990588 -11.90682,-13.484706 0,-6.407059 3.72587,-13.302353 11.90682,-13.302353 8.1786,0 11.90447,6.894118 11.90447,13.302353 0,6.494118 -3.72587,13.482353 -11.90682,13.482353 z"
               id="Shape"
               fill="#000000" />
            <ellipse
               id="Oval"
               fill="#2ca01c"
               cx="53.275379"
               cy="53.207058"
               rx="52.840908"
               ry="52.941177" />
            <path
               d="m 15.107803,53.204706 c 0,11.370588 9.200189,20.588235 20.549243,20.588235 h 2.935606 v -7.647059 h -2.935606 c -7.122955,0 -12.916667,-5.804705 -12.916667,-12.941176 0,-7.135294 5.793712,-12.941177 12.916667,-12.941177 h 7.053674 v 40 c 0,4.22353 3.417045,7.647059 7.632576,7.647059 V 32.616471 h -14.68625 c -11.349054,0 -20.549243,9.218823 -20.549243,20.588235 z M 70.896061,32.62 h -2.935607 v 7.647059 h 2.935607 c 7.120606,0 12.916666,5.805882 12.916666,12.941176 0,7.135294 -5.79606,12.941177 -12.916666,12.941177 h -7.057197 v -40 c 0,-4.22353 -3.417046,-7.647059 -7.632576,-7.647059 v 55.294118 h 14.689773 c 11.347878,0 20.549242,-9.217648 20.549242,-20.588236 C 91.445303,41.837647 82.243939,32.62 70.896061,32.62 Z"
               id="path14433"
               fill="#ffffff" />
            <path
               d="m 171.95606,12.321177 c 1.92811,0 3.49102,-1.567059 3.49102,-3.4976476 0,-1.9317647 -1.56174,-3.4988235 -3.49102,-3.4988235 -1.92811,0 -3.4922,1.5670588 -3.4922,3.4988235 0,1.9294116 1.56409,3.4976476 3.4922,3.4976476 z m -20.83576,2.35647 c -3.41704,0 -6.16242,2.075294 -7.17227,4.390588 h -0.0975 v -3.714117 h -5.48724 v 23.157647 h 5.77728 V 25.775294 c 0,-3.087059 1.73318,-6.270588 5.38977,-6.270588 3.7106,0 4.33648,3.423529 4.33648,6.174117 v 12.832942 h 5.77727 V 24.038823 c 0,-4.729411 -2.50349,-9.359999 -8.525,-9.359999 z m -24.45712,23.832941 h 5.77727 V 15.352941 h -5.77727 z M 231.73792,12.322353 c 1.92928,0 3.49219,-1.568235 3.49219,-3.4988236 0,-1.9317647 -1.56174,-3.4988235 -3.49102,-3.4988235 -1.92576,0 -3.48985,1.5670588 -3.48985,3.4988235 0,1.9294116 1.56174,3.4976476 3.49102,3.4976476 z M 222.37098,15.34 v 5.129412 h 6.47947 v 18.04 h 5.77963 V 20.470588 h 6.47829 v -5.129411 h -18.73739 z m -9.82606,23.169412 h 5.77728 V 15.352941 h -5.77728 V 38.510588 Z M 162.58795,20.470588 h 6.4783 v 18.04 h 5.77727 v -18.04 h 6.4783 v -5.129411 h -18.73504 v 5.129411 z m 38.26269,7.62 c 0,3.087059 -1.73435,6.270588 -5.39212,6.270588 -3.70825,0 -4.33295,-3.423529 -4.33295,-6.17647 V 15.354118 h -5.77962 v 14.472941 c 0,4.729412 2.50348,9.36 8.525,9.36 3.41704,0 6.16242,-2.074118 7.17227,-4.390588 h 0.0975 v 3.715294 h 5.48958 V 15.352941 h -5.77727 v 12.737647 z"
               id="path14435"
               fill="#000000" />
          </g>
        </g>
      </g>
    </g>
  </g>
  <g
     id="layer3"
     transform="translate(518.53052,210.76158)" />
  <g
     id="layer2"
     style="display:inline;opacity:1"
     transform="translate(518.53052,210.76158)">
    <text
       xml:space="preserve"
       id="text867"
       style="font-style:normal;font-weight:normal;font-size:8.46667px;line-height:1.25;font-family:sans-serif;white-space:pre;shape-inside:url(#rect869);fill:#00c7ff;fill-opacity:1;stroke:none"
       x="26.073866"
       y="0"
       transform="translate(-6.0123457,3.5714077)"><tspan
         x="-508.19931"
         y="-192.60468"
         id="tspan22296"><tspan
           style="font-family:FontAwesome;-inkscape-font-specification:FontAwesome;text-align:center;text-anchor:middle"
           id="tspan22294">SCHEDULE</tspan></tspan></text>
    <path
       id="rect1375"
       style="fill:#2ca01c;fill-opacity:1;stroke-width:0.234243"
       d="m -518.53049,-198.85533 h 58.50283 c 2.85306,0 5.14994,1.91261 5.14994,4.28835 v 4.65247 c 0,2.37575 -2.29688,4.28835 -5.14994,4.28835 h -58.50283 z" />
    <text
       xml:space="preserve"
       style="font-style:normal;font-weight:normal;font-size:7.05556px;line-height:1.25;font-family:sans-serif;fill:#979797;fill-opacity:1;stroke:none;stroke-width:0.264583"
       x="-514.19659"
       y="-189.65004"
       id="text1380"><tspan
         id="tspan1378"
         x="-514.19659"
         y="-189.65004"
         style="font-size:7.05556px;fill:#ffffff;fill-opacity:1;stroke-width:0.264583">QUICKBOOKS</tspan></text>
  </g>
  <style
     type="text/css"
     id="style909">
	.st0{fill:#00a3e0;}
</style>
</svg>
