<?xml version="1.0" encoding="UTF-8"?>
<svg width="570" height="400" version="1.1" viewBox="0 0 150.81 105.83" xmlns="http://www.w3.org/2000/svg"><defs><style>.cls-1{fill:#a54544;}.cls-2{fill:#fc4f4f;}.cls-3{fill:#bebcbd;}.cls-4{fill:#e31c41;}.cls-5{fill:#59595b;}</style></defs><g transform="translate(518.53 210.76)"><rect x="-518.53" y="-210.76" width="150.81" height="105.83" fill="#fff" fill-opacity=".99842" fill-rule="evenodd" stroke-width=".066416"/></g><g transform="translate(518.53 210.76)"><g transform="matrix(1.0844 0 0 1.0114 -478.37 -190.61)" fill="#ff9700"><path d="m42.5 55.5h-9.9v-13.8h21.4l9-29.4h-9v-7.2h-24.9l-6-5.4h-17.1v41.9h25v13.8h-9.9v4.1h-19.1v1.5h19.1v4.1h21.3v-4.1h19.1v-1.5h-19zm-35-54.2h15l6 5.4h23.9v5.7h-37.7l-7.2 23.5zm8.3 12.5h45.1l-8 26.4h-45.1zm25.2 50h-18.3v-6.8h18.3z"/><rect x="27.4" y="59.6" width="1.5" height="1.5"/><rect x="34.4" y="59.6" width="1.5" height="1.5"/><rect x="30.9" y="59.6" width="1.5" height="1.5"/><rect x="34.5" y="35.3" width="1.5" height="1.5"/><rect x="39" y="35.3" width="1.5" height="1.5"/><rect x="48" y="35.3" width="1.5" height="1.5"/><rect x="43.5" y="35.3" width="1.5" height="1.5"/><g transform="matrix(.24405 0 0 .22039 10.928 16.751)"><path d="m82.78 56.43a8.33 8.33 0 0 0-4.62-7.43c-0.6-0.35-1.24-0.62-2.11-1.06v-3.47c0-3.3 0.07-6.61-0.13-9.9a23.4 23.4 0 0 0-18.23-21.65 23.7 23.7 0 0 0-25.88 11.56 24.67 24.67 0 0 0-3 12.57v10.58c-0.38 0.41-0.45 0.53-0.55 0.58-0.41 0.23-0.82 0.44-1.24 0.66a8.4 8.4 0 0 0-5 7.92c0 8.84-0.08 17.69 0 26.53 0.07 5.08 3.39 8.35 8.41 8.66h44.3c4.64-0.4 8-3.62 8-8.29 0.17-9.1 0.11-18.18 0.05-27.26zm-26.78 18.76v7.47h-7v-7.35c-4.38-5-4.86-9.33-1.66-12.43a7.55 7.55 0 0 1 10.5 0.14c2.97 3.13 2.43 7.5-1.84 12.17zm7.81-29.41a15.56 15.56 0 0 1-0.4 2.38h-21.94a19 19 0 0 1-0.37-2.45c0-3.17-0.07-6.35 0-9.52 0.16-6.57 5-11.44 11.37-11.42s11.14 4.88 11.3 11.5c0.08 3.17 0.05 6.34 0.01 9.51z" fill="#ff9700"/></g></g></g><g transform="translate(518.53 210.76)"><path d="m-518.53-198.86h24.527c1.1961 0 2.1591 1.9126 2.1591 4.2884v4.6525c0 2.3758-0.96295 4.2884-2.1591 4.2884h-24.527z" fill="#ff9700" stroke-width=".15167"/><text x="-514.19659" y="-189.65004" fill="#979797" font-family="sans-serif" font-size="7.0556px" stroke-width=".26458" style="line-height:1.25" xml:space="preserve"><tspan x="-514.19659" y="-189.65004" fill="#ffffff" font-size="7.0556px" stroke-width=".26458">SFTP</tspan></text></g><style type="text/css">.st0{fill:#00a3e0;}</style></svg>
