<?xml version="1.0" encoding="UTF-8"?>
<svg width="570" height="400" version="1.1" viewBox="0 0 150.81 105.83" xmlns="http://www.w3.org/2000/svg"><defs><style>.cls-1{fill:#a54544;}.cls-2{fill:#fc4f4f;}.cls-3{fill:#bebcbd;}.cls-4{fill:#e31c41;}.cls-5{fill:#59595b;}</style></defs><g transform="translate(518.53 210.76)"><rect x="-518.53" y="-210.76" width="150.81" height="105.83" fill="#fff" fill-opacity=".99842" fill-rule="evenodd" stroke-width=".066416"/></g><g transform="translate(518.53 210.76)"><g transform="matrix(.51676 0 0 .56074 -476.2 -193.73)" fill="#ff9700"><path d="m126 44h-6.49a59 59 0 0 0-111 0h-6.51a2 2 0 0 0-2 2v36a2 2 0 0 0 2 2h6.47a59 59 0 0 0 111 0h6.53a2 2 0 0 0 2-2v-36a2 2 0 0 0-2-2zm-10.75 0h-22.62a88.84 88.84 0 0 0-3-11.88 53.78 53.78 0 0 0 11.62-8.57 54.9 54.9 0 0 1 14 20.45zm-75.82 0a88.52 88.52 0 0 1 2.57-10.09 53.38 53.38 0 0 0 20 4.69v5.4zm45.3-13.88a49.27 49.27 0 0 1-18.73 4.48v-25.44c7.42 1.2 14.19 8.97 18.73 20.96zm-22.73-20.96v25.44a49.27 49.27 0 0 1-18.73-4.48c4.53-11.99 11.31-19.77 18.73-20.96zm4 29.44a53.29 53.29 0 0 0 20-4.69 86.46 86.46 0 0 1 2.56 10.09h-22.56zm32.2-17.67a48.79 48.79 0 0 1-9.93 7.37c-3-7.64-6.89-13.73-11.36-17.76a55.13 55.13 0 0 1 21.29 10.39zm-58.47 7.37a48.88 48.88 0 0 1-9.93-7.37 55.09 55.09 0 0 1 21.28-10.39c-4.47 4.03-8.37 10.12-11.35 17.76zm-13-4.76a53.26 53.26 0 0 0 11.62 8.58 88.84 88.84 0 0 0-3 11.88h-22.6a54.9 54.9 0 0 1 13.99-20.46zm-14 60.46h22.62a90.5 90.5 0 0 0 3 11.86 53.8 53.8 0 0 0-11.6 8.59 54.81 54.81 0 0 1-14.02-20.45zm75.82 0a88.15 88.15 0 0 1-2.55 10.07 53.2 53.2 0 0 0-20-4.7v-5.37zm-45.3 13.86a49.2 49.2 0 0 1 18.75-4.49v25.47c-7.44-1.2-14.22-8.98-18.75-20.98zm22.73 21v-25.49a49.29 49.29 0 0 1 18.74 4.49c-4.53 12-11.31 19.78-18.72 20.98zm-3.98-29.49a53.29 53.29 0 0 0-20 4.7 88.18 88.18 0 0 1-2.58-10.07h22.58zm-32.2 17.69a50 50 0 0 1 9.92-7.38c3 7.65 6.9 13.75 11.37 17.78a55 55 0 0 1-21.31-10.4zm58.48-7.38a49.13 49.13 0 0 1 9.92 7.39 55 55 0 0 1-21.3 10.39c4.47-4.04 8.38-10.13 11.36-17.78zm13 4.78a53.82 53.82 0 0 0-11.61-8.6 88.94 88.94 0 0 0 3-11.86h22.62a54.9 54.9 0 0 1-14.05 20.46zm22.72-24.46h-120v-32h120z"/><path d="m23.85 57.23a2.27 2.27 0 0 0-0.19-0.34 2.16 2.16 0 0 0-0.55-0.55 2.27 2.27 0 0 0-0.34-0.19 2.72 2.72 0 0 0-0.38-0.11 2 2 0 0 0-0.78 0 2.38 2.38 0 0 0-0.38 0.11 2.27 2.27 0 0 0-0.34 0.19 2.16 2.16 0 0 0-0.55 0.55 1.63 1.63 0 0 0-0.19 0.34 1.82 1.82 0 0 0-0.11 0.38 1.72 1.72 0 0 0-0.04 0.39 2 2 0 0 0 0.59 1.41 1.88 1.88 0 0 0 0.64 0.44 2 2 0 0 0 0.77 0.15 2 2 0 0 0 2-2 1.72 1.72 0 0 0 0-0.39 2.72 2.72 0 0 0-0.15-0.38z"/><path d="m23.85 69.23a2.27 2.27 0 0 0-0.19-0.34 2.16 2.16 0 0 0-0.55-0.55 2 2 0 0 0-0.35-0.19 1.58 1.58 0 0 0-0.37-0.11 2 2 0 0 0-0.78 0 1.82 1.82 0 0 0-0.38 0.11 2.27 2.27 0 0 0-0.34 0.19 2.16 2.16 0 0 0-0.55 0.55 2.27 2.27 0 0 0-0.19 0.34 1.82 1.82 0 0 0-0.11 0.38 1.72 1.72 0 0 0-0.04 0.39 2 2 0 0 0 2 2 2 2 0 0 0 0.77-0.15 2 2 0 0 0 0.64-0.44 2 2 0 0 0 0.59-1.41 1.72 1.72 0 0 0 0-0.39 2.72 2.72 0 0 0-0.15-0.38z"/><path d="m37.3 52.1a2 2 0 0 0-2.53 1.27l-6.67 20a2 2 0 0 0 1.27 2.53 2 2 0 0 0 0.63 0.1 2 2 0 0 0 1.9-1.37l6.66-20a2 2 0 0 0-1.26-2.53z"/><path d="m50.63 52.1a2 2 0 0 0-2.53 1.27l-6.66 20a2 2 0 0 0 1.26 2.53 2 2 0 0 0 0.63 0.1 2 2 0 0 0 1.9-1.37l6.67-20a2 2 0 0 0-1.27-2.53z"/><text x="57.172726" y="70.976646" font-family="sans-serif" font-size="17.067px" stroke-width=".42667" style="line-height:1.25" xml:space="preserve"><tspan x="57.172726" y="70.976646" fill="#ff9700" font-family="sans-serif" font-weight="bold" stroke-width=".42667">XML</tspan></text></g></g><g transform="translate(518.53 210.76)"><path d="m-518.53-198.86h38.545c1.8798 0 3.393 1.9126 3.393 4.2884v4.6525c0 2.3758-1.5133 4.2884-3.393 4.2884h-38.545z" fill="#ff9700" stroke-width=".19013"/><text x="-514.19659" y="-189.65004" fill="#979797" font-family="sans-serif" font-size="7.0556px" stroke-width=".26458" style="line-height:1.25" xml:space="preserve"><tspan x="-514.19659" y="-189.65004" fill="#ffffff" font-size="7.0556px" stroke-width=".26458">SOAP API</tspan></text></g><style type="text/css">.st0{fill:#00a3e0;}</style></svg>
